<svg width="20" height="20" viewBox="0 0 20 20" fill="none" xmlns="http://www.w3.org/2000/svg">
<path d="M10.0003 1.66669C5.40866 1.66669 1.66699 5.40835 1.66699 10C1.66699 14.5917 5.40866 18.3334 10.0003 18.3334C14.592 18.3334 18.3337 14.5917 18.3337 10C18.3337 5.40835 14.592 1.66669 10.0003 1.66669ZM13.3337 10.625H10.6253V13.3334C10.6253 13.675 10.342 13.9584 10.0003 13.9584C9.65866 13.9584 9.37533 13.675 9.37533 13.3334V10.625H6.66699C6.32533 10.625 6.04199 10.3417 6.04199 10C6.04199 9.65835 6.32533 9.37502 6.66699 9.37502H9.37533V6.66669C9.37533 6.32502 9.65866 6.04169 10.0003 6.04169C10.342 6.04169 10.6253 6.32502 10.6253 6.66669V9.37502H13.3337C13.6753 9.37502 13.9587 9.65835 13.9587 10C13.9587 10.3417 13.6753 10.625 13.3337 10.625Z" fill="#87BE23"/>
</svg>
