<svg width="36" height="36" viewBox="0 0 36 36" fill="none" xmlns="http://www.w3.org/2000/svg">
<path fill-rule="evenodd" clip-rule="evenodd" d="M16.4169 12.4997C16.661 12.7438 16.661 13.1395 16.4169 13.3836L11.8005 18L16.4169 22.6164C16.661 22.8605 16.661 23.2562 16.4169 23.5003C16.1729 23.7443 15.7771 23.7443 15.5331 23.5003L10.4747 18.4419C10.3575 18.3247 10.2917 18.1657 10.2917 18C10.2917 17.8342 10.3575 17.6753 10.4747 17.558L15.5331 12.4997C15.7771 12.2556 16.1729 12.2556 16.4169 12.4997Z" fill="white"/>
<path fill-rule="evenodd" clip-rule="evenodd" d="M10.4333 18C10.4333 17.6548 10.7131 17.375 11.0583 17.375H25.0833C25.4284 17.375 25.7083 17.6548 25.7083 18C25.7083 18.3452 25.4284 18.625 25.0833 18.625H11.0583C10.7131 18.625 10.4333 18.3452 10.4333 18Z" fill="white"/>
<rect x="0.5" y="0.5" width="35" height="35" rx="17.5" stroke="white"/>
</svg>
