<svg width="36" height="36" viewBox="0 0 36 36" fill="none" xmlns="http://www.w3.org/2000/svg">
<path fill-rule="evenodd" clip-rule="evenodd" d="M19.5828 12.4997C19.8268 12.2556 20.2226 12.2556 20.4666 12.4997L25.525 17.558C25.6422 17.6753 25.708 17.8342 25.708 18C25.708 18.1657 25.6422 18.3247 25.525 18.4419L20.4666 23.5003C20.2226 23.7443 19.8268 23.7443 19.5828 23.5003C19.3387 23.2562 19.3387 22.8605 19.5828 22.6164L24.1991 18L19.5828 13.3836C19.3387 13.1395 19.3387 12.7438 19.5828 12.4997Z" fill="white"/>
<path fill-rule="evenodd" clip-rule="evenodd" d="M10.2916 18C10.2916 17.6548 10.5714 17.375 10.9166 17.375H24.9416C25.2868 17.375 25.5666 17.6548 25.5666 18C25.5666 18.3452 25.2868 18.625 24.9416 18.625H10.9166C10.5714 18.625 10.2916 18.3452 10.2916 18Z" fill="white"/>
<rect x="0.5" y="0.5" width="35" height="35" rx="17.5" stroke="white"/>
</svg>
