<svg width="16" height="13" viewBox="0 0 16 13" fill="none" xmlns="http://www.w3.org/2000/svg">
<path fill-rule="evenodd" clip-rule="evenodd" d="M6.41727 0.883009C6.66134 1.12709 6.66134 1.52282 6.41727 1.76689L1.80088 6.38329L6.41727 10.9997C6.66134 11.2438 6.66134 11.6395 6.41727 11.8836C6.17319 12.1276 5.77746 12.1276 5.53338 11.8836L0.47505 6.82523C0.35784 6.70802 0.291992 6.54905 0.291992 6.38329C0.291992 6.21753 0.35784 6.05855 0.47505 5.94134L5.53338 0.883009C5.77746 0.638932 6.17319 0.638932 6.41727 0.883009Z" fill="#3F3D3C"/>
<path fill-rule="evenodd" clip-rule="evenodd" d="M0.433594 6.38329C0.433594 6.03811 0.713416 5.75829 1.05859 5.75829H15.0836C15.4288 5.75829 15.7086 6.03811 15.7086 6.38329C15.7086 6.72847 15.4288 7.00829 15.0836 7.00829H1.05859C0.713416 7.00829 0.433594 6.72847 0.433594 6.38329Z" fill="#3F3D3C"/>
</svg>
