<svg width="16" height="13" viewBox="0 0 16 13" fill="none" xmlns="http://www.w3.org/2000/svg">
<path fill-rule="evenodd" clip-rule="evenodd" d="M9.58215 0.883009C9.82622 0.638932 10.222 0.638932 10.466 0.883009L15.5244 5.94134C15.6416 6.05855 15.7074 6.21753 15.7074 6.38329C15.7074 6.54905 15.6416 6.70802 15.5244 6.82523L10.466 11.8836C10.222 12.1276 9.82622 12.1276 9.58215 11.8836C9.33807 11.6395 9.33807 11.2438 9.58215 10.9997L14.1985 6.38329L9.58215 1.76689C9.33807 1.52282 9.33807 1.12709 9.58215 0.883009Z" fill="#3F3D3C"/>
<path fill-rule="evenodd" clip-rule="evenodd" d="M0.291016 6.38329C0.291016 6.03811 0.570838 5.75829 0.916016 5.75829H14.941C15.2862 5.75829 15.566 6.03811 15.566 6.38329C15.566 6.72847 15.2862 7.00829 14.941 7.00829H0.916016C0.570838 7.00829 0.291016 6.72847 0.291016 6.38329Z" fill="#3F3D3C"/>
</svg>
