<svg width="24" height="24" viewBox="0 0 24 24" fill="none" xmlns="http://www.w3.org/2000/svg">
<path fill-rule="evenodd" clip-rule="evenodd" d="M10.1003 5.39966C10.3932 5.69256 10.3932 6.16743 10.1003 6.46032L4.56066 12L10.1003 17.5397C10.3932 17.8326 10.3932 18.3074 10.1003 18.6003C9.80744 18.8932 9.33256 18.8932 9.03967 18.6003L2.96967 12.5303C2.82902 12.3897 2.75 12.1989 2.75 12C2.75 11.8011 2.82902 11.6103 2.96967 11.4697L9.03967 5.39966C9.33256 5.10677 9.80744 5.10677 10.1003 5.39966Z" fill="black"/>
<path fill-rule="evenodd" clip-rule="evenodd" d="M2.91992 12C2.91992 11.5858 3.25571 11.25 3.66992 11.25H20.4999C20.9141 11.25 21.2499 11.5858 21.2499 12C21.2499 12.4142 20.9141 12.75 20.4999 12.75H3.66992C3.25571 12.75 2.91992 12.4142 2.91992 12Z" fill="black"/>
</svg>
