<svg width="18" height="18" viewBox="0 0 18 18" fill="none" xmlns="http://www.w3.org/2000/svg">
<path d="M9.00001 0.666626C4.40834 0.666626 0.666672 4.40829 0.666672 8.99996C0.666672 13.5916 4.40834 17.3333 9.00001 17.3333C13.5917 17.3333 17.3333 13.5916 17.3333 8.99996C17.3333 4.40829 13.5917 0.666626 9.00001 0.666626ZM11.325 9.44163L8.38334 12.3833C8.25834 12.5083 8.10001 12.5666 7.94167 12.5666C7.78334 12.5666 7.62501 12.5083 7.50001 12.3833C7.25834 12.1416 7.25834 11.7416 7.50001 11.5L10 8.99996L7.50001 6.49996C7.25834 6.25829 7.25834 5.85829 7.50001 5.61663C7.74167 5.37496 8.14167 5.37496 8.38334 5.61663L11.325 8.55829C11.575 8.79996 11.575 9.19996 11.325 9.44163Z" fill="#87BE23"/>
</svg>
