<svg width="20" height="20" viewBox="0 0 20 20" fill="none" xmlns="http://www.w3.org/2000/svg">
<path d="M10.0003 18.9584C5.05866 18.9584 1.04199 14.9417 1.04199 10C1.04199 5.05835 5.05866 1.04169 10.0003 1.04169C14.942 1.04169 18.9587 5.05835 18.9587 10C18.9587 14.9417 14.942 18.9584 10.0003 18.9584ZM10.0003 2.29169C5.75033 2.29169 2.29199 5.75002 2.29199 10C2.29199 14.25 5.75033 17.7084 10.0003 17.7084C14.2503 17.7084 17.7087 14.25 17.7087 10C17.7087 5.75002 14.2503 2.29169 10.0003 2.29169Z" fill="#87BE23"/>
<path d="M8.95037 13.5667C8.79204 13.5667 8.6337 13.5083 8.5087 13.3833C8.26704 13.1417 8.26704 12.7417 8.5087 12.5L11.0087 10L8.5087 7.5C8.26704 7.25833 8.26704 6.85833 8.5087 6.61666C8.75037 6.375 9.15037 6.375 9.39204 6.61666L12.3337 9.55833C12.5754 9.8 12.5754 10.2 12.3337 10.4417L9.39204 13.3833C9.26704 13.5083 9.1087 13.5667 8.95037 13.5667Z" fill="#87BE23"/>
</svg>
