<svg width="14" height="14" viewBox="0 0 14 14" fill="none" xmlns="http://www.w3.org/2000/svg">
<path fill-rule="evenodd" clip-rule="evenodd" d="M0.724587 0.724715C0.968664 0.480637 1.36439 0.480637 1.60847 0.724715L6.99985 6.1161L12.3912 0.724715C12.6353 0.480637 13.031 0.480637 13.2751 0.724715C13.5192 0.968792 13.5192 1.36452 13.2751 1.6086L7.88374 6.99998L13.2751 12.3914C13.5192 12.6355 13.5192 13.0312 13.2751 13.2753C13.0311 13.5194 12.6353 13.5194 12.3913 13.2753L6.99985 7.88387L1.60845 13.2753C1.36437 13.5194 0.96864 13.5194 0.724562 13.2753C0.480484 13.0312 0.480484 12.6355 0.724562 12.3914L6.11597 6.99998L0.724587 1.6086C0.480509 1.36452 0.480509 0.968792 0.724587 0.724715Z" fill="white"/>
</svg>
