<svg width="16" height="14" viewBox="0 0 16 14" fill="none" xmlns="http://www.w3.org/2000/svg">
<path fill-rule="evenodd" clip-rule="evenodd" d="M6.18005 1.31052C6.99027 -0.10418 9.03007 -0.103031 9.83917 1.31161L15.2286 10.7353C15.2286 10.7353 15.2287 10.7353 15.2286 10.7353C16.0328 12.1411 15.0168 13.8901 13.3986 13.8901H2.61139C0.991952 13.8901 -0.0225515 12.1399 0.781382 10.7346L6.18005 1.31052C6.18007 1.31049 6.18004 1.31054 6.18005 1.31052ZM8.8626 1.87013C8.4852 1.2103 7.53407 1.20993 7.15626 1.86966L1.75789 11.2932C1.38283 11.9488 1.85632 12.7651 2.61139 12.7651H13.3986C14.1535 12.7651 14.6269 11.9491 14.2521 11.2939L8.8626 1.87013C8.8626 1.87013 8.8626 1.87012 8.8626 1.87013ZM8.00277 5.17362C8.31343 5.17362 8.56527 5.42546 8.56527 5.73612V8.06112C8.56527 8.37178 8.31343 8.62362 8.00277 8.62362C7.69211 8.62362 7.44027 8.37178 7.44027 8.06112V5.73612C7.44027 5.42546 7.69211 5.17362 8.00277 5.17362ZM7.43464 10.375C7.43464 10.0644 7.68648 9.81253 7.99714 9.81253H8.00464C8.3153 9.81253 8.56714 10.0644 8.56714 10.375C8.56714 10.6857 8.3153 10.9375 8.00464 10.9375H7.99714C7.68648 10.9375 7.43464 10.6857 7.43464 10.375Z" fill="#FF0000"/>
</svg>
