<svg width="24" height="24" viewBox="0 0 24 24" fill="none" xmlns="http://www.w3.org/2000/svg">
<path d="M12 22C17.5228 22 22 17.5228 22 12C22 6.47715 17.5228 2 12 2C6.47715 2 2 6.47715 2 12C2 17.5228 6.47715 22 12 22Z" fill="#4CC764"/>
<path d="M18.6687 11.4125C18.6687 8.42496 15.675 5.99371 11.9937 5.99371C8.31248 5.99371 5.31873 8.42496 5.31873 11.4125C5.31873 14.0875 7.69373 16.3312 10.9 16.7562C11.1187 16.8062 11.4125 16.9 11.4875 17.0875C11.5562 17.2562 11.5312 17.5187 11.5062 17.6937C11.5062 17.6937 11.425 18.1625 11.4125 18.2625C11.3812 18.4312 11.2812 18.925 11.9937 18.625C12.7062 18.325 15.8375 16.3625 17.2375 14.75C18.2062 13.6875 18.6687 12.6125 18.6687 11.4125Z" fill="white"/>
<path d="M16.4503 13.1375C16.5191 13.1375 16.5753 13.0812 16.5753 13.0125V12.5375C16.5753 12.4687 16.5191 12.4125 16.4503 12.4125H15.1753V11.9187H16.4503C16.5191 11.9187 16.5753 11.8625 16.5753 11.7937V11.3187C16.5753 11.25 16.5191 11.1937 16.4503 11.1937H15.1753V10.7H16.4503C16.5191 10.7 16.5753 10.6437 16.5753 10.575V10.1C16.5753 10.0312 16.5191 9.97498 16.4503 9.97498H14.5753C14.5066 9.97498 14.4503 10.0312 14.4503 10.1V13.0062C14.4503 13.075 14.5066 13.1312 14.5753 13.1312H16.4503V13.1375Z" fill="#4CC764"/>
<path d="M9.5127 13.1375C9.58145 13.1375 9.6377 13.0812 9.6377 13.0125V12.5375C9.6377 12.4687 9.58145 12.4125 9.5127 12.4125H8.2377V10.1C8.2377 10.0312 8.18145 9.97498 8.1127 9.97498H7.6377C7.56895 9.97498 7.5127 10.0312 7.5127 10.1V13.0125C7.5127 13.0812 7.56895 13.1375 7.6377 13.1375H9.5127Z" fill="#4CC764"/>
<path d="M10.6436 9.97498H10.1686C10.0998 9.97498 10.0436 10.0312 10.0436 10.1V13.0125C10.0436 13.0812 10.0998 13.1375 10.1686 13.1375H10.6436C10.7123 13.1375 10.7686 13.0812 10.7686 13.0125V10.1C10.7686 10.0312 10.7123 9.97498 10.6436 9.97498Z" fill="#4CC764"/>
<path d="M13.8627 9.97498H13.3877C13.319 9.97498 13.2627 10.0312 13.2627 10.1V11.8312L11.9315 10.0312C11.9315 10.025 11.9252 10.025 11.919 10.0187L11.9127 10.0125L11.9065 10.0062C11.9065 10.0062 11.9065 10.0062 11.9002 10.0062L11.894 9.99998C11.894 9.99998 11.894 9.99998 11.8877 9.99998C11.8877 9.99998 11.8815 9.99998 11.8815 9.99373C11.8815 9.99373 11.8815 9.99373 11.8752 9.99373C11.8752 9.99373 11.869 9.99373 11.869 9.98748C11.869 9.98748 11.869 9.98748 11.8627 9.98748H11.8565C11.8565 9.98748 11.8565 9.98748 11.8502 9.98748H11.844H11.8377H11.8315H11.8252C11.8252 9.98748 11.8252 9.98748 11.819 9.98748H11.3502C11.2815 9.98748 11.2252 10.0437 11.2252 10.1125V13.025C11.2252 13.0937 11.2815 13.15 11.3502 13.15H11.8252C11.894 13.15 11.9502 13.0937 11.9502 13.025V11.2937L13.2877 13.0937C13.294 13.1062 13.3065 13.1187 13.319 13.125L13.3252 13.1312C13.3252 13.1312 13.3252 13.1312 13.3315 13.1312H13.3377H13.344C13.344 13.1312 13.344 13.1312 13.3502 13.1312H13.3565C13.369 13.1312 13.3752 13.1375 13.3877 13.1375H13.8565C13.9252 13.1375 13.9815 13.0812 13.9815 13.0125V10.1C13.994 10.0312 13.9315 9.97498 13.8627 9.97498Z" fill="#4CC764"/>
</svg>
