<svg width="24" height="24" viewBox="0 0 24 24" fill="none" xmlns="http://www.w3.org/2000/svg">
<path d="M12 22C17.5228 22 22 17.5228 22 12C22 6.47715 17.5228 2 12 2C6.47715 2 2 6.47715 2 12C2 17.5228 6.47715 22 12 22Z" fill="#4CC764"/>
<path d="M18.6684 11.4125C18.6684 8.42496 15.6746 5.99371 11.9934 5.99371C8.31211 5.99371 5.31836 8.42496 5.31836 11.4125C5.31836 14.0875 7.69336 16.3312 10.8996 16.7562C11.1184 16.8062 11.4121 16.9 11.4871 17.0875C11.5559 17.2562 11.5309 17.5187 11.5059 17.6937C11.5059 17.6937 11.4246 18.1625 11.4121 18.2625C11.3809 18.4312 11.2809 18.925 11.9934 18.625C12.7059 18.325 15.8371 16.3625 17.2371 14.75C18.2059 13.6875 18.6684 12.6125 18.6684 11.4125Z" fill="white"/>
<path d="M16.4492 13.1375C16.518 13.1375 16.5742 13.0812 16.5742 13.0125V12.5375C16.5742 12.4687 16.518 12.4125 16.4492 12.4125H15.1742V11.9187H16.4492C16.518 11.9187 16.5742 11.8625 16.5742 11.7937V11.3187C16.5742 11.25 16.518 11.1937 16.4492 11.1937H15.1742V10.7H16.4492C16.518 10.7 16.5742 10.6437 16.5742 10.575V10.1C16.5742 10.0312 16.518 9.97498 16.4492 9.97498H14.5742C14.5055 9.97498 14.4492 10.0312 14.4492 10.1V13.0062C14.4492 13.075 14.5055 13.1312 14.5742 13.1312H16.4492V13.1375Z" fill="#4CC764"/>
<path d="M9.51172 13.1375C9.58047 13.1375 9.63672 13.0812 9.63672 13.0125V12.5375C9.63672 12.4687 9.58047 12.4125 9.51172 12.4125H8.23672V10.1C8.23672 10.0312 8.18047 9.97498 8.11172 9.97498H7.63672C7.56797 9.97498 7.51172 10.0312 7.51172 10.1V13.0125C7.51172 13.0812 7.56797 13.1375 7.63672 13.1375H9.51172Z" fill="#4CC764"/>
<path d="M10.643 9.97498H10.168C10.0992 9.97498 10.043 10.0312 10.043 10.1V13.0125C10.043 13.0812 10.0992 13.1375 10.168 13.1375H10.643C10.7117 13.1375 10.768 13.0812 10.768 13.0125V10.1C10.768 10.0312 10.7117 9.97498 10.643 9.97498Z" fill="#4CC764"/>
<path d="M13.8621 9.97498H13.3871C13.3184 9.97498 13.2621 10.0312 13.2621 10.1V11.8312L11.9309 10.0312C11.9309 10.025 11.9246 10.025 11.9184 10.0187L11.9121 10.0125L11.9059 10.0062C11.9059 10.0062 11.9059 10.0062 11.8996 10.0062L11.8934 9.99998C11.8934 9.99998 11.8934 9.99998 11.8871 9.99998C11.8871 9.99998 11.8809 9.99998 11.8809 9.99373C11.8809 9.99373 11.8809 9.99373 11.8746 9.99373C11.8746 9.99373 11.8684 9.99373 11.8684 9.98748C11.8684 9.98748 11.8684 9.98748 11.8621 9.98748H11.8559C11.8559 9.98748 11.8559 9.98748 11.8496 9.98748H11.8434H11.8371H11.8309H11.8246C11.8246 9.98748 11.8246 9.98748 11.8184 9.98748H11.3496C11.2809 9.98748 11.2246 10.0437 11.2246 10.1125V13.025C11.2246 13.0937 11.2809 13.15 11.3496 13.15H11.8246C11.8934 13.15 11.9496 13.0937 11.9496 13.025V11.2937L13.2871 13.0937C13.2934 13.1062 13.3059 13.1187 13.3184 13.125L13.3246 13.1312C13.3246 13.1312 13.3246 13.1312 13.3309 13.1312H13.3371H13.3434C13.3434 13.1312 13.3434 13.1312 13.3496 13.1312H13.3559C13.3684 13.1312 13.3746 13.1375 13.3871 13.1375H13.8559C13.9246 13.1375 13.9809 13.0812 13.9809 13.0125V10.1C13.9934 10.0312 13.9309 9.97498 13.8621 9.97498Z" fill="#4CC764"/>
</svg>
