<svg width="25" height="24" viewBox="0 0 25 24" fill="none" xmlns="http://www.w3.org/2000/svg">
<path d="M13.2704 22.3657C13.1682 22.4615 13.0306 22.52 12.8801 22.52C12.7293 22.52 12.5917 22.4615 12.4899 22.3657L6.89704 17.1111C5.19996 15.5166 4.14014 13.2522 4.14014 10.74C4.14014 5.91324 8.053 2 12.8801 2C17.7069 2 21.6201 5.91324 21.6201 10.74C21.6201 13.2522 20.5603 15.5166 18.8632 17.1111L13.2704 22.3657ZM12.8801 7.32C10.9912 7.32 9.46014 8.85102 9.46014 10.74C9.46014 12.629 10.9912 14.16 12.8801 14.16C14.7691 14.16 16.3001 12.629 16.3001 10.74C16.3001 8.85102 14.7691 7.32 12.8801 7.32Z" fill="#F39313"/>
</svg>
