<svg width="24" height="24" viewBox="0 0 24 24" fill="none" xmlns="http://www.w3.org/2000/svg">
<path d="M12.2802 22.3657C12.1779 22.4615 12.0404 22.52 11.8899 22.52C11.739 22.52 11.6015 22.4615 11.4996 22.3657L5.9068 17.1111C4.20972 15.5166 3.1499 13.2522 3.1499 10.74C3.1499 5.91324 7.06276 2 11.8899 2C16.7167 2 20.6299 5.91324 20.6299 10.74C20.6299 13.2522 19.5701 15.5166 17.873 17.1111L12.2802 22.3657ZM11.8899 7.32C10.0009 7.32 8.4699 8.85102 8.4699 10.74C8.4699 12.629 10.0009 14.16 11.8899 14.16C13.7789 14.16 15.3099 12.629 15.3099 10.74C15.3099 8.85102 13.7789 7.32 11.8899 7.32Z" fill="black"/>
</svg>
