<svg width="20" height="20" viewBox="0 0 20 20" fill="none" xmlns="http://www.w3.org/2000/svg">
<path fill-rule="evenodd" clip-rule="evenodd" d="M8.83335 1.25C4.64518 1.25 1.25 4.64517 1.25 8.83332C1.25 13.0215 4.64518 16.4166 8.83335 16.4166C13.0215 16.4166 16.4167 13.0215 16.4167 8.83332C16.4167 4.64517 13.0215 1.25 8.83335 1.25ZM2.41667 8.83332C2.41667 5.2895 5.28951 2.41666 8.83335 2.41666C12.3772 2.41666 15.25 5.2895 15.25 8.83332C15.25 12.3771 12.3772 15.25 8.83335 15.25C5.28951 15.25 2.41667 12.3771 2.41667 8.83332Z" fill="white"/>
<path d="M15.4681 14.6431C15.2403 14.4153 14.871 14.4153 14.6432 14.6431C14.4153 14.8709 14.4153 15.2403 14.6431 15.4681L17.7542 18.5791C17.982 18.8069 18.3513 18.807 18.5791 18.5791C18.8069 18.3513 18.807 17.982 18.5791 17.7542L15.4681 14.6431Z" fill="white"/>
</svg>
