<svg width="24" height="24" viewBox="0 0 24 24" fill="none" xmlns="http://www.w3.org/2000/svg">
<path fill-rule="evenodd" clip-rule="evenodd" d="M10.6 1.5C5.57422 1.5 1.5 5.5742 1.5 10.6C1.5 15.6258 5.57422 19.7 10.6 19.7C15.6258 19.7 19.7 15.6258 19.7 10.6C19.7 5.5742 15.6258 1.5 10.6 1.5ZM2.9 10.6C2.9 6.3474 6.34742 2.9 10.6 2.9C14.8526 2.9 18.3 6.3474 18.3 10.6C18.3 14.8526 14.8526 18.3 10.6 18.3C6.34742 18.3 2.9 14.8526 2.9 10.6Z" fill="black"/>
<path d="M18.5617 17.5718C18.2884 17.2984 17.8452 17.2984 17.5718 17.5717C17.2984 17.8451 17.2984 18.2883 17.5718 18.5617L21.305 22.295C21.5784 22.5683 22.0216 22.5683 22.295 22.295C22.5683 22.0216 22.5683 21.5784 22.295 21.305L18.5617 17.5718Z" fill="black"/>
</svg>
