<svg width="24" height="24" viewBox="0 0 24 24" fill="none" xmlns="http://www.w3.org/2000/svg">
<path fill-rule="evenodd" clip-rule="evenodd" d="M15.6023 8.91283C15.6369 8.51021 15.9909 8.21193 16.3929 8.2466C18.2555 8.40722 19.7143 8.98082 20.6823 10.1755C21.6339 11.3501 22 12.9915 22 15.0341V15.161C22 17.4138 21.554 19.1814 20.3698 20.3674C19.1855 21.5534 17.4205 22 15.171 22H8.82903C6.57947 22 4.81447 21.5534 3.63022 20.3674C2.44597 19.1814 2 17.4138 2 15.161V15.0341C2 13.0064 2.36114 11.3748 3.29747 10.2027C4.25069 9.00939 5.68819 8.4282 7.524 8.25681C7.92578 8.2193 8.28185 8.51508 8.3193 8.91745C8.35675 9.31981 8.06141 9.6764 7.65963 9.71391C6.04683 9.86448 5.05374 10.3467 4.43853 11.1168C3.80642 11.9081 3.46128 13.14 3.46128 15.0341V15.161C3.46128 17.2691 3.8872 18.5552 4.6635 19.3326C5.43979 20.11 6.72399 20.5366 8.82903 20.5366H15.171C17.276 20.5366 18.5602 20.11 19.3365 19.3326C20.1128 18.5552 20.5387 17.2691 20.5387 15.161V15.0341C20.5387 13.1255 20.1888 11.889 19.5476 11.0976C18.9228 10.3265 17.912 9.84643 16.2676 9.70462C15.8655 9.66995 15.5677 9.31545 15.6023 8.91283Z" fill="black"/>
<path fill-rule="evenodd" clip-rule="evenodd" d="M12.0049 3.09268C12.4084 3.09268 12.7355 3.42028 12.7355 3.82439V14.9268C12.7355 15.3309 12.4084 15.6585 12.0049 15.6585C11.6013 15.6585 11.2742 15.3309 11.2742 14.9268V3.82439C11.2742 3.42028 11.6013 3.09268 12.0049 3.09268Z" fill="black"/>
<path fill-rule="evenodd" clip-rule="evenodd" d="M11.4882 2.21431C11.7735 1.92856 12.2362 1.92856 12.5215 2.21431L15.785 5.48261C16.0703 5.76836 16.0703 6.23165 15.785 6.5174C15.4997 6.80315 15.0371 6.80315 14.7517 6.5174L12.0049 3.7665L9.25798 6.5174C8.97264 6.80315 8.51003 6.80315 8.2247 6.5174C7.93937 6.23165 7.93937 5.76836 8.2247 5.48261L11.4882 2.21431Z" fill="black"/>
</svg>
