<svg width="18" height="18" viewBox="0 0 18 18" fill="none" xmlns="http://www.w3.org/2000/svg">
<path fill-rule="evenodd" clip-rule="evenodd" d="M12.0013 6.42738C12.0301 6.09186 12.3251 5.84329 12.6601 5.87218C14.2123 6.00604 15.4279 6.48404 16.2346 7.47964C17.0276 8.45841 17.3327 9.8263 17.3327 11.5285V11.6342C17.3327 13.5115 16.961 14.9845 15.9742 15.9729C14.9873 16.9612 13.5165 17.3334 11.6418 17.3334H6.35687C4.48224 17.3334 3.01141 16.9612 2.02453 15.9729C1.03766 14.9845 0.666016 13.5115 0.666016 11.6342V11.5285C0.666016 9.83866 0.966962 8.47901 1.74724 7.50224C2.54159 6.50784 3.73951 6.02352 5.26935 5.8807C5.60416 5.84944 5.90089 6.09592 5.9321 6.43123C5.96331 6.76653 5.71719 7.06369 5.38238 7.09495C4.03837 7.22042 3.2108 7.62227 2.69812 8.26406C2.17137 8.92347 1.88375 9.94999 1.88375 11.5285V11.6342C1.88375 13.3909 2.23868 14.4627 2.8856 15.1105C3.53251 15.7584 4.60267 16.1138 6.35687 16.1138H11.6418C13.396 16.1138 14.4662 15.7584 15.1131 15.1105C15.76 14.4627 16.115 13.3909 16.115 11.6342V11.5285C16.115 9.93797 15.8233 8.90748 15.289 8.24804C14.7683 7.60542 13.926 7.20538 12.5557 7.0872C12.2206 7.05831 11.9724 6.7629 12.0013 6.42738Z" fill="#838383"/>
<path fill-rule="evenodd" clip-rule="evenodd" d="M9.0034 1.57725C9.33967 1.57725 9.61226 1.85025 9.61226 2.18701V11.439C9.61226 11.7758 9.33967 12.0488 9.0034 12.0488C8.66713 12.0488 8.39453 11.7758 8.39453 11.439V2.18701C8.39453 1.85025 8.66713 1.57725 9.0034 1.57725Z" fill="#838383"/>
<path fill-rule="evenodd" clip-rule="evenodd" d="M8.57286 0.84528C8.81064 0.607156 9.19615 0.607156 9.43393 0.84528L12.1535 3.56886C12.3913 3.80698 12.3913 4.19306 12.1535 4.43118C11.9157 4.66931 11.5302 4.66931 11.2925 4.43118L9.0034 2.13877L6.71433 4.43118C6.47655 4.66931 6.09104 4.66931 5.85326 4.43118C5.61549 4.19306 5.61549 3.80698 5.85326 3.56886L8.57286 0.84528Z" fill="#838383"/>
</svg>
