<svg width="15" height="16" viewBox="0 0 15 16" fill="none" xmlns="http://www.w3.org/2000/svg">
<path d="M14.7383 5.75073C14.7383 5.68998 14.7285 5.62995 14.709 5.5722L13.893 3.12354C13.4078 1.66704 12.0495 0.6875 10.5135 0.6875H4.33803C2.80203 0.6875 1.44454 1.66629 0.958542 3.12354L0.142532 5.5722C0.123032 5.62995 0.113281 5.68998 0.113281 5.75073C0.114031 6.48423 0.402781 7.14725 0.863281 7.64825V12.5C0.863281 14.051 2.12478 15.3125 3.67578 15.3125H6.50851V12.5C6.50851 11.9832 6.92926 11.5625 7.44601 11.5625C7.96276 11.5625 8.38351 11.9832 8.38351 12.5V15.3125H11.1758C12.7268 15.3125 13.9883 14.051 13.9883 12.5V7.64825C14.4488 7.1465 14.7375 6.48423 14.7383 5.75073ZM2.02577 3.47903C2.35802 2.48228 3.28728 1.8125 4.33803 1.8125H10.5135C11.5643 1.8125 12.4935 2.48228 12.8258 3.47903L13.611 5.83478C13.5668 6.74003 12.8453 7.4375 11.9333 7.4375C11.1735 7.4375 10.431 6.95446 10.206 6.31396C10.1273 6.08821 9.9143 5.9375 9.67505 5.9375H9.67276C9.43276 5.93825 9.21978 6.09122 9.14253 6.31772C8.92428 6.95597 8.18552 7.4375 7.42427 7.4375C6.66302 7.4375 5.92426 6.95597 5.70601 6.31772C5.62876 6.09122 5.41578 5.93825 5.17578 5.9375H5.17354C4.93504 5.9375 4.72128 6.08821 4.64253 6.31396C4.41753 6.95446 3.67503 7.4375 2.91603 7.4375C2.00403 7.4375 1.28253 6.74003 1.23828 5.83478L2.02577 3.47903ZM11.1758 14.1875H9.50851V12.5C9.50851 11.3622 8.58301 10.4375 7.44601 10.4375C6.30901 10.4375 5.38351 11.3622 5.38351 12.5V14.1875H3.67578C2.74503 14.1875 1.98828 13.4307 1.98828 12.5V8.39075C2.28078 8.495 2.59052 8.5625 2.91827 8.5625C3.78377 8.5625 4.62001 8.17398 5.17276 7.56723C5.72251 8.17473 6.55728 8.5625 7.42578 8.5625C8.29428 8.5625 9.12905 8.17398 9.6788 7.56723C10.2316 8.17473 11.0678 8.5625 11.9333 8.5625C12.261 8.5625 12.5708 8.495 12.8633 8.39075V12.5C12.8633 13.43 12.1065 14.1875 11.1758 14.1875Z" fill="#838383"/>
</svg>
