<svg width="24" height="24" viewBox="0 0 24 24" fill="none" xmlns="http://www.w3.org/2000/svg">
<path d="M12 22C17.5228 22 22 17.5228 22 12C22 6.47715 17.5228 2 12 2C6.47715 2 2 6.47715 2 12C2 17.5228 6.47715 22 12 22Z" fill="#1B9DF0"/>
<path d="M10.1694 17.275C14.6044 17.275 17.0294 13.6 17.0294 10.415C17.0294 10.31 17.0294 10.205 17.0244 10.105C17.4944 9.76498 17.9044 9.33998 18.2294 8.85498C17.7994 9.04498 17.3344 9.17498 16.8444 9.23498C17.3444 8.93498 17.7244 8.46498 17.9044 7.89998C17.4394 8.17498 16.9244 8.37498 16.3744 8.48498C15.9344 8.01498 15.3094 7.72498 14.6144 7.72498C13.2844 7.72498 12.2044 8.80498 12.2044 10.135C12.2044 10.325 12.2244 10.51 12.2694 10.685C10.2644 10.585 8.48938 9.62498 7.29938 8.16498C7.09438 8.51998 6.97438 8.93498 6.97438 9.37498C6.97438 10.21 7.39938 10.95 8.04938 11.38C7.65438 11.37 7.28438 11.26 6.95937 11.08C6.95937 11.09 6.95937 11.1 6.95937 11.11C6.95937 12.28 7.78937 13.25 8.89437 13.475C8.69437 13.53 8.47938 13.56 8.25937 13.56C8.10438 13.56 7.95438 13.545 7.80438 13.515C8.10938 14.475 8.99938 15.17 10.0544 15.19C9.22938 15.835 8.18938 16.22 7.05937 16.22C6.86437 16.22 6.67437 16.21 6.48438 16.185C7.53938 16.875 8.80937 17.275 10.1694 17.275Z" fill="white"/>
</svg>
