<svg width="200" height="200" viewBox="0 0 200 200" fill="none" xmlns="http://www.w3.org/2000/svg">
<path d="M28.7271 60.3395C65.6654 35.6167 101.546 18.0554 141.291 36.9675C189.206 57.5406 173.791 83.4986 189.294 120.962C204.798 158.426 151.976 205.265 74.3513 190.056C-1.22106 175.25 -8.21128 85.0622 28.7271 60.3395Z" fill="#B8D584" fill-opacity="0.2"/>
<path d="M124.26 89.3255C123.759 88.8835 122.552 89.1555 122.424 88.348C120.716 88.348 119.441 88.892 118.625 90.065C118.497 89.5635 118.744 89.232 118.013 89.2065V88.467C118.412 88.4415 118.599 88.756 118.625 88.2205C118.837 88.2205 118.939 88.314 118.99 88.467C120.231 87.175 123.844 87.2175 124.26 89.3255Z" fill="#6C9C30"/>
<path d="M73.175 102.433C73.685 102.662 73.311 103.342 73.787 103.784C73.311 104.09 73.566 104.371 73.294 104.889C72.801 104.974 72.5206 105.255 72.0701 105.382C72.0531 104.014 72.869 103.487 73.175 102.441" fill="#6C9C30"/>
<path d="M124.26 105.493C124.694 105.536 124.558 105.833 124.991 105.612C124.923 105.714 124.864 105.816 124.872 105.978C124.685 105.791 124.175 105.944 124.26 105.485" fill="#6C9C30"/>
<path d="M118.871 108.927C119.483 109.012 119.33 109.854 120.095 109.786C120.07 111.129 118.608 110.143 118.013 110.398C117.834 110.245 117.783 109.973 117.766 109.658C118.242 109.318 118.625 109.565 118.871 108.919" fill="#6C9C30"/>
<path d="M81.0119 109.411C81.6834 111.341 80.4594 113.568 80.1534 115.047C79.5839 115.421 79.2185 115.999 78.4365 116.152C78.87 113.483 80.4509 111.961 81.0119 109.411Z" fill="#6C9C30"/>
<path d="M128.791 112.233C129.488 112.556 129.275 113.789 129.402 114.681C128.867 114.511 128.655 114.758 128.051 114.8C128.094 114.248 127.796 114.401 127.312 114.188C127.609 113.789 127.728 113.857 127.431 113.33C127.788 112.871 128.578 112.845 128.782 112.225" fill="#6C9C30"/>
<path d="M134.672 115.906C134.8 115.09 134.129 115.115 134.426 114.435C134.868 114.299 135.795 113.942 135.65 113.942C136.534 113.594 136.865 114.843 137.001 115.659C136.466 116.322 135.505 116.135 134.672 115.906Z" fill="#6C9C30"/>
<path d="M142.637 115.293C142.713 114.307 144.023 114.562 144.72 114.188C144.941 114.418 144.813 114.996 144.839 115.412C144.303 115.531 144.371 116.245 143.734 116.271C143.657 115.769 143.444 115.54 142.628 115.293" fill="#6C9C30"/>
<path d="M48.6694 114.435C49.8849 115.829 52.2479 114.316 52.9534 116.152C51.2704 116.288 48.9159 116.143 48.6694 114.435Z" fill="#6C9C30"/>
<path d="M120.333 122.4C119.899 122.34 119.628 122.128 119.109 122.153C118.429 120.36 121.514 120.411 120.333 122.4Z" fill="#6C9C30"/>
<path d="M59.813 120.929C60.187 121.014 60.051 121.014 60.425 120.929C60.221 121.702 60.9181 122.357 60.7906 123.13C60.2296 123.13 60.0595 123.547 59.5665 123.623C59.167 122.901 59.422 121.77 59.813 120.929Z" fill="#6C9C30"/>
<path d="M130.508 124.363C130.669 125.765 130.38 126.267 130.142 127.304C129.428 127.083 129.369 127.414 128.425 127.423C128.06 126.513 128.74 125.927 128.425 124.975C129.258 125.383 129.581 123.844 130.508 124.363Z" fill="#6C9C30"/>
<path d="M88.237 124.601C88.781 124.958 87.6591 125.306 88.1181 125.578C87.5316 125.935 87.2596 126.598 86.4011 126.683C86.4521 126.037 86.707 125.595 86.894 125.094C87.659 125.077 87.676 124.558 88.237 124.601Z" fill="#6C9C30"/>
<path d="M139.084 125.46C139.5 125.893 139.891 126.369 139.942 127.177C139.313 127.763 138.744 127.687 138.106 127.789C137.868 127.457 138.03 126.718 137.494 126.684C137.375 126.284 138.276 126.216 137.494 126.191C137.724 125.74 139.075 126.386 139.084 125.46Z" fill="#6C9C30"/>
<path d="M80.6466 126.93C80.5106 127.202 80.5105 127.601 80.1535 127.669C80.1025 127.21 80.2556 126.947 80.6466 126.93Z" fill="#6C9C30"/>
<path d="M79.6607 127.296C79.8222 127.338 79.8563 127.517 80.0263 127.542C79.4143 129.174 78.1563 130.169 76.7198 130.976C76.1163 129.132 78.8787 128.571 79.6607 127.296Z" fill="#6C9C30"/>
<path d="M111.391 129.624C111.85 130.262 111.748 130.534 111.757 131.214C111.332 131.46 111.221 130.797 111.145 131.095C111.204 130.857 111.391 130.109 111.391 129.624Z" fill="#6C9C30"/>
<path d="M61.5302 132.2H61.8956C61.8701 133.152 62.5501 133.773 62.6351 134.776C62.1931 135.133 62.0317 135.039 61.5302 135.269C61.1222 134.121 60.9607 133.22 61.5302 132.209" fill="#6C9C30"/>
<path d="M144.099 135.26C144.159 136.714 143.521 137.802 142.136 138.074C141.957 137.623 142.136 137.368 142.017 136.722C142.671 136.195 143.156 135.49 144.099 135.252" fill="#6C9C30"/>
<path d="M90.9314 135.388C91.3649 135.43 91.2289 135.728 91.6709 135.515C91.1099 136.433 90.821 137.096 89.7075 137.598C89.2485 137.334 89.8009 136.314 89.9539 135.881C90.4894 135.923 90.8379 135.787 90.9314 135.388Z" fill="#6C9C30"/>
<path d="M126.462 136.246C126.963 137.419 126.308 138.226 125.968 139.187H125.11C125.067 138.762 124.965 138.532 125.229 138.209C125.195 138.039 124.923 138.107 124.736 138.082C124.379 137.07 125.204 136.322 126.453 136.246" fill="#6C9C30"/>
<path d="M71.9425 136.857C72.8095 136.968 72.121 138.438 72.5545 138.693C72.1465 138.931 71.7641 139.73 71.3306 139.552C71.4666 138.591 71.696 137.716 71.9425 136.857Z" fill="#6C9C30"/>
<path d="M141.778 137.589C141.753 137.937 141.566 138.116 141.167 138.082V137.716C141.311 137.614 141.498 137.555 141.778 137.589Z" fill="#6C9C30"/>
<path d="M125.118 139.672C125.025 139.774 124.37 139.799 124.379 139.425C124.574 139.221 125.152 139.281 125.118 139.672Z" fill="#6C9C30"/>
<path d="M81.6241 139.918C81.9131 141.023 80.162 141.771 78.8105 142C78.7595 141.337 79.0741 141.04 79.1761 140.53C80.1026 140.19 81.2501 140.64 81.6241 139.918Z" fill="#6C9C30"/>
<path d="M113.473 145.426C114.136 145.664 114.153 146.548 114.451 147.143C115.054 147.151 115.343 147.474 115.428 148.001C115.352 148.214 114.85 147.993 114.816 148.248C114.663 148.197 114.57 148.086 114.57 147.882C113.703 148.528 112.997 148.035 112.122 147.882C112.266 147.576 112.538 147.406 112.861 147.27C112.827 146.905 112.402 147.1 112.249 147.27C111.909 147.321 112.139 146.811 111.884 146.777C112.419 146.225 112.717 145.995 113.473 145.426Z" fill="#6C9C30"/>
<path d="M130.992 147.517C131.145 146.922 132.054 145.52 133.193 145.928C133.355 147.806 132.276 149.022 130.618 148.376C130.712 148.265 130.839 148.188 130.983 148.129C130.907 147.763 130.72 148.248 130.491 148.129C130.686 147.559 130.389 147.721 130.372 147.152C130.661 147.194 130.898 147.279 130.983 147.517" fill="#6C9C30"/>
<path d="M90.566 145.919C90.872 145.902 90.9486 146.114 91.1781 146.165C91.3311 146.573 90.5406 147.032 91.1781 147.143C90.8211 148.129 90.0306 148.69 88.8491 148.86C88.7981 148.282 88.8916 147.84 88.9681 147.389C89.4016 147.253 89.7331 147.007 90.3196 147.024C90.2431 146.905 90.039 146.896 90.073 146.658C90.328 146.59 90.4215 146.352 90.804 146.412C90.957 146.012 90.4046 146.318 90.5576 145.919" fill="#6C9C30"/>
<path d="M66.8 150.577C66.7235 150.994 66.0945 150.849 66.069 151.317C64.8705 151.291 63.3405 151.58 63.128 150.577H62.3885C63.315 150.195 66.6895 149.005 66.8 150.577Z" fill="#6C9C30"/>
<path d="M77.5779 151.189C78.2324 151.453 77.9689 152.337 78.3174 152.66C78.1049 153.059 78.1048 153.297 77.8243 153.399C77.8753 153.637 78.1729 153.62 78.0709 154.011C77.6969 154.13 77.5778 154.496 76.9658 154.377C77.0508 153.025 77.1699 152.32 77.5779 151.189Z" fill="#6C9C30"/>
<path d="M128.051 155.6C128.374 155.566 128.578 155.643 128.544 155.966C128.221 156 127.932 156.008 128.051 155.6Z" fill="#6C9C30"/>
<path d="M129.156 155.6H129.649C129.743 155.932 129.403 155.847 129.403 156.093C129.19 156.059 129.122 155.881 129.156 155.6Z" fill="#6C9C30"/>
<path d="M157.461 180.956C156.892 180.897 156.67 181.194 156.237 180.956C156.449 180.744 157.461 180.276 157.461 180.956Z" fill="#6C9C30"/>
<path d="M73.294 162.953C73.5065 163.004 73.2685 163.114 73.294 163.318C73.6 163.794 75.1216 163.072 74.5181 162.706C74.1781 163.012 73.4725 162.766 73.294 162.953ZM75.742 163.199C76.1925 163.403 76.4986 163.743 76.8471 164.058C76.9916 163.531 77.4166 163.922 77.7056 163.692C77.3316 163.59 77.3145 163.446 77.459 163.08C76.813 163.199 76.66 162.732 76.116 162.468C75.9375 162.655 75.861 162.944 75.7505 163.199M75.504 162.341C75.827 162.375 75.9035 162.171 75.8695 161.848C75.5465 161.814 75.47 162.018 75.504 162.341ZM63.3745 161.61C64.267 161.015 65.9925 161.21 66.069 160.632C65.882 160.998 65.2446 160.454 65.576 160.267C65.0916 160.598 64.9045 161.44 64.352 160.513C63.859 161.074 62.8475 160.377 62.635 161.244C62.89 161.355 63.179 161.431 63.3745 161.61ZM66.681 161.61C66.5365 162.281 65.6951 162.256 65.576 162.953C65.9501 163.276 65.9416 163.344 65.6951 163.811C65.8736 163.998 66.324 163.922 66.6725 163.939C66.5365 162.681 68.092 162.961 68.5085 163.199C69.1545 162.74 68.619 161.491 67.7775 161.848C67.718 161.457 67.395 161.338 67.412 160.87C66.7405 161.168 66.5535 160.352 66.307 160.624C66.1795 160.879 66.3835 161.176 66.6725 161.601M70.7185 160.862C70.846 161.27 71.2201 161.423 71.3306 161.839C72.4696 161.839 73.532 161.287 74.144 161.474C74.841 160.318 73.6425 158.907 71.815 159.264C71.9425 159.629 71.5431 159.485 71.3221 159.51C71.4496 159.91 71.6366 159.774 71.3221 160.122C71.7216 160.275 71.4155 159.723 71.815 159.876C72.019 160.122 71.8065 160.029 71.815 160.369C71.0585 160.131 71.4325 161.55 70.71 160.862M69.9705 160.862C69.9535 161.015 69.9366 161.151 69.7241 161.108C69.7496 160.879 69.588 160.836 69.605 160.615C70.1575 160.267 70.71 159.927 70.9565 159.264C70.387 159.527 68.8825 159.204 68.381 160.122C68.6615 160.479 69.197 160.377 68.7465 160.853C69.18 161.032 70.217 161.542 69.9705 160.853M60.4165 159.136C60.391 158.907 60.5525 158.864 60.5355 158.643C60.2125 158.788 59.813 158.405 59.796 158.643C60.187 158.788 59.7705 159.128 60.408 159.136M67.514 157.785C67.548 158.159 67.378 158.737 67.7605 158.762C68.1005 158.329 68.9421 158.397 68.9846 157.657C68.4491 157.929 68.2705 157.819 67.514 157.785ZM70.8205 157.904C71.322 157.717 72.07 158.49 72.291 157.785C71.5515 158.031 71.7385 157.36 71.5515 157.045H71.186C71.0925 157.368 71.0925 157.768 70.8205 157.904ZM79.89 156.561C79.822 156.382 79.6945 156.263 79.5245 156.195C79.295 156.773 78.8445 157.538 78.173 157.3V157.793C79.261 157.147 80.723 157.037 81.114 155.464C80.944 155.464 80.842 155.405 80.7485 155.345C80.6635 155.957 80.0855 156.068 79.89 156.569M88.2201 154.368C87.1916 154.138 86.8515 154.563 86.0185 154.487C85.381 154.436 84.718 154.045 84.3015 154.121C83.392 154.283 83.3836 155.439 82.5846 155.473C82.6101 156.323 81.845 157.963 80.621 157.555C80.0175 158.465 78.9041 158.856 77.8076 159.272V158.907C77.4251 158.864 77.2211 159.187 76.9491 158.907C76.7706 159.374 77.493 158.932 77.3145 159.4C76.5835 159.23 76.524 159.859 75.9715 159.519C75.8865 160.785 77.3315 161.049 78.3005 160.87C79.312 161.448 80.298 161.091 81.3605 161.363C81.981 160.437 81.6241 159.927 81.7261 158.788C82.3721 159.859 82.355 161.023 82.7035 162.222C83.1285 162.324 83.2221 161.992 83.4346 162.222C83.5791 161.491 84.2335 160.683 84.6585 160.632C84.548 160.275 84.5055 160.207 84.7775 160.02C84.6415 159.791 84.4715 159.587 84.412 159.281C85.0665 159.128 84.8115 158.805 85.2705 158.55C85.823 158.813 85.7551 159.145 85.8826 159.655C86.0951 159.578 85.874 159.068 86.129 159.043C86.2055 159.34 86.2056 159.587 86.6221 159.782C86.8686 159.425 87.0726 160.139 87.4806 160.029C87.8971 159.145 88.7385 158.669 89.3165 157.946C89.0445 157.972 88.9256 157.844 88.951 157.581C89.8351 156.663 88.6621 155.133 88.951 153.909H88.458C88.492 154.189 88.4241 154.368 88.2116 154.402M51.585 153.297C51.449 153.05 50.5735 152.846 50.48 153.297C50.752 153.934 51.6445 154.793 52.4435 154.155C52.282 154.104 52.333 153.237 52.809 153.416C52.758 153.186 52.979 152.676 52.5625 152.804C52.3415 153.297 51.772 152.727 51.585 153.297ZM65.4315 155.379C66.851 155.286 66.7575 155.932 67.8795 156.119C68.1685 155.15 66.409 155.235 66.0435 154.521C65.916 154.844 65.287 154.665 65.185 155.014C65.253 154.58 65.083 154.385 64.8195 154.283C63.638 154.495 62.1335 153.501 61.2665 152.931C60.9265 153.382 60.6885 152.71 60.5355 152.566C60.3995 152.838 60.221 153.067 60.289 153.543C59.0055 154.121 58.011 155.507 56.617 155.26C56.464 156.102 56.8465 157.02 57.9685 157.224C57.6285 156.96 57.518 156.229 57.9685 155.872C58.181 156.229 58.844 156.136 58.827 156.731C59.1755 156.578 59.524 156.637 59.439 157.224C60.1275 157.028 60.425 157.173 60.782 156.612C60.7905 156.807 60.765 157.037 61.0285 156.977C61.0455 156.833 61.003 156.629 61.1475 156.612C61.547 156.96 62.5925 156.739 63.23 156.731C63.4425 157.173 63.23 157.3 63.23 157.955C62.5415 157.98 62.193 158.737 61.6405 158.201C61.6575 159 60.425 158.15 60.4165 158.567C60.85 158.499 61.0455 158.669 61.1475 158.932C60.952 158.941 60.7225 158.915 60.782 159.179C61.2325 159.646 61.547 158.898 61.887 159.544C62.159 159.366 61.734 159.247 62.006 159.179C62.1505 159.315 62.2271 159.527 62.6181 159.425C62.9156 159.264 62.482 158.966 62.737 158.932C63.8675 159.238 65.9075 159.57 66.409 158.932C65.9755 159.425 65.9585 156.552 66.528 157.343C66.154 156.306 65.7715 156.578 65.423 155.379M84.905 152.438C85.296 153.535 87.2595 153.662 87.846 152.804C86.7155 152.94 86.316 152.234 84.905 152.438ZM77.68 147.415C77.867 147.126 77.9775 147.228 78.292 147.287C78.1135 146.93 77.833 146.675 77.4335 146.548C77.306 147.007 77.7395 146.896 77.68 147.287C77.612 147.287 77.544 147.389 77.68 147.415ZM73.0221 146.803C72.8606 147.5 72.546 148.044 72.0445 148.392C72.41 148.69 72.4695 149.506 72.0445 149.982C72.3845 150.517 72.6566 151.588 72.1636 152.064C72.1296 152.302 72.325 152.311 72.41 152.43C71.3645 154.682 72.9371 157.071 75.4701 157.938C75.4956 157.793 75.6655 157.81 75.8355 157.819C75.8525 157.674 75.8185 157.47 75.9545 157.453C77.7565 156.272 79.5671 155.107 81.0971 153.654C80.8676 153.637 80.689 153.577 80.604 153.407C80.502 152.37 81.6496 152.574 81.9556 151.937C81.2756 151.809 81.709 150.747 81.709 150.22C80.3915 149.472 79.278 148.443 77.663 148.622C77.7565 148.29 77.4165 148.375 77.4165 148.129C76.354 148.341 75.3935 147.304 74.229 147.27C74.45 147.032 74.1271 146.65 73.9826 146.412C73.4981 146.378 73.4895 146.82 73.005 146.777M75.0875 145.919C75.946 146.106 76.507 146.973 77.289 146.531C76.694 146.148 75.9035 145.307 75.0875 145.553C75.2745 145.587 75.1725 145.825 75.0875 145.919ZM66.0265 144.695C65.644 144.805 65.083 146.684 64.556 146.896C65.1595 147.406 63.5701 147.763 63.451 148.367C63.2045 148.316 62.5415 148.061 62.346 148.367C62.5585 148.367 62.6606 148.46 62.7116 148.613H62.0995C61.632 149.599 61.054 150.279 61.4875 151.673C64.607 152.608 67.7605 153.458 70.4295 155.226C70.4125 154.886 70.4041 154.597 70.6761 154.861C70.4466 153.662 70.9055 152.761 71.0415 151.189C70.863 150.917 70.7441 151.342 70.6761 151.07C70.3616 149.208 70.336 148.324 69.571 146.293C68.6955 146.157 68.2366 146.25 67.4886 145.681C67.6416 145.715 67.9136 145.324 67.6076 145.315C67.0381 145.664 67.0551 144.389 66.0181 144.703M63.3235 145.434C63.7485 146.14 62.8646 146.174 62.8306 146.786C63.6806 146.446 64.1481 145.74 64.4201 144.822C64.2416 144.754 64.114 144.644 63.927 144.576C63.553 144.916 63.944 145.307 63.315 145.434M57.7985 147.636C57.365 147.746 57.501 147.653 57.0675 147.763C56.9655 147.619 56.906 147.432 56.9485 147.151C55.92 146.828 55.6311 147.338 54.7471 147.636C53.8971 147.925 53.285 147.262 52.7835 147.763C53.115 147.44 52.6136 147.313 52.4181 147.151C52.4521 147.432 52.384 147.61 52.1715 147.636C51.636 146.854 50.021 147.568 50.089 146.531C49.7065 146.548 49.4091 146.48 49.2306 146.284C49.4516 146.301 49.5195 146.165 49.477 145.919C48.831 145.383 48.236 146.259 47.641 145.672C47.641 145.468 47.981 145.604 48.0065 145.426C47.8195 145.043 47.1565 145.128 47.148 144.567C46.7995 144.593 46.3065 144.465 46.2895 144.814C46.4 145.281 46.876 145.876 46.655 146.284C46.7315 146.454 47.1225 146.301 47.148 146.531C46.995 146.752 47.0546 147.177 46.7826 147.27C47.8026 147.967 48.287 149.2 48.6185 150.577C49.1795 150.432 48.9756 151.027 49.2306 151.189C50.4971 152.013 52.4265 150.815 53.2765 152.166C53.302 152.03 53.4805 151.869 53.523 152.039C53.778 152.311 53.3955 152.634 53.523 153.144C54.0415 153.314 54.305 153.832 54.8745 154.249C56.396 154.138 58.9545 153.9 58.9205 152.285C59.0905 151.962 59.4391 151.818 59.5326 151.427C59.2181 150.432 60.748 149.497 59.66 148.367C59.303 148.333 59.286 148.647 58.929 148.613C58.8695 148.239 58.3595 148.239 58.81 148.001C58.3 148.222 57.9261 147.874 57.8326 147.636M91.3991 144.083C91.3396 143.7 91.6626 143.607 91.3991 143.352C90.6681 143.377 91.45 144.244 90.906 144.329C90.906 143.777 90.0305 143.955 89.682 144.083C89.631 144.295 89.8605 144.397 89.682 144.448C89.444 144.482 89.4355 144.278 89.3165 144.202C89.019 144.363 89.5375 144.576 89.189 144.695C88.373 144.55 88.1435 145.069 87.1065 145.06C87.2085 145.638 86.4605 145.859 86.741 146.531C86.35 146.675 86.18 147.032 85.7635 147.143C85.6105 147.534 86.163 147.236 86.01 147.627C85.228 147.746 84.6161 148.435 84.2931 148.605C83.2476 149.157 84.8115 150.211 84.905 151.427C85.9505 151.189 86.435 151.486 87.1065 151.061C87.999 151.614 88.8916 151.452 89.9201 151.92C90.2771 151.622 90.5065 150.67 91.144 151.061C91.3055 150.39 91.7986 149.259 92.3681 148.613C91.5521 148.52 92.606 147.891 92.1215 147.389C93.3115 146.786 92.334 145.902 92.8525 144.941C92.4955 144.678 92.2575 144.338 92.606 143.964C92.0875 144.057 92.181 143.292 92.487 143.233C92.3935 143.207 92.3426 143.131 92.3681 142.986C91.6201 142.927 91.96 143.972 91.3905 144.091M59.048 140.657C60.3485 140.836 61.445 141.609 62.3545 142.493C61.87 142.867 61.3685 143.224 60.6375 143.352C59.7705 142.578 59.5665 141.558 58.555 141.142C57.586 142.077 58.113 143.658 57.212 144.941C57.6285 145.094 57.9345 145.366 58.0705 145.8C58.589 145.621 59.133 145.468 59.9065 145.553C60.391 146.131 60.7735 146.811 61.496 147.151C61.1985 145.825 62.9325 144.652 63.5785 143.471C65.2445 143.224 65.9755 142.026 67.0125 141.142C66.9615 141.439 67.2335 141.414 67.1315 141.754C67.99 141.711 68.4575 141.278 68.721 140.649C68.279 140.725 68.2365 140.394 68.228 140.037C67.99 140.003 67.99 140.207 67.8625 140.283C67.327 139.127 65.8566 139.119 65.0491 138.32C65.0321 138.966 65.0235 138.422 64.6835 138.439C63.281 140.037 60.595 140.649 59.048 138.932C58.232 139.858 59.898 140.428 59.048 140.649M77.425 136.484C77.6545 136.696 78.2835 136.62 78.1645 136.118C77.7225 136.042 77.476 136.161 77.425 136.484ZM75.3425 142.612C75.6145 142.629 75.3936 143.131 75.4616 143.352C74.8666 143.386 74.7815 143.386 74.603 143.964C75.4275 144.406 77.357 143.726 77.4165 145.188C78.8955 145.043 79.4905 146.769 80.723 147.27C80.6295 147.296 80.5785 147.372 80.604 147.517C82.457 148.69 84.803 147.84 85.6275 146.165C86.0185 145.375 85.5936 144.44 85.9931 143.717C85.5341 143.598 85.6701 143.454 85.1346 143.598C85.2876 143.08 84.7265 143.275 84.6415 142.986C84.854 142.952 84.922 142.774 84.888 142.493C84.5055 142.357 84.5906 142.689 84.3951 142.74C84.4121 142.111 83.7831 142.128 83.6556 141.635C83.5876 140.836 84.531 141.04 85.007 140.776C85.398 141.074 85.789 141.38 86.35 141.507C85.704 139.391 85.959 135.71 83.7745 134.036C82.1085 135.064 80.2386 135.889 78.8701 137.223C79.2526 137.215 79.55 137.283 79.7285 137.47C79.2355 137.742 78.8955 137.393 78.258 137.47C77.3485 138.056 78.3515 139.875 77.034 139.918C76.7365 140.198 77.2211 140.241 77.2806 140.53C77.0511 140.793 76.711 140.87 76.5495 140.895C76.5665 141.405 75.8185 142.204 75.3255 142.612M93.575 134.282C93.405 134.282 93.3031 134.223 93.2096 134.163C93.0906 134.529 93.4815 134.384 93.7025 134.41C93.677 134.189 93.83 133.798 93.456 133.917C93.456 134.087 93.5155 134.189 93.575 134.282ZM66.375 137.342C67.837 138.209 69.724 138.651 70.54 140.164C70.268 141.193 69.35 141.584 69.0695 142.612C69.3925 142.944 69.741 143.25 70.4125 143.224C70.625 144.074 71.3986 144.355 71.6366 145.188C71.6536 144.916 72.155 145.137 72.3675 145.06C72.427 144.363 73.141 144.601 73.5915 144.083C73.821 143.819 73.702 143.335 73.957 142.978C74.127 142.748 74.603 142.638 74.8155 142.366C74.926 142.221 74.8835 141.728 75.062 141.507C75.181 141.363 75.5125 141.346 75.555 141.261C75.7165 140.938 75.6145 140.343 75.8015 139.909C75.9715 139.518 76.4645 139.161 76.541 138.932C76.592 138.77 76.4051 138.473 76.4221 138.439C76.7536 137.861 76.898 138.719 76.541 138.192C76.3795 137.946 76.507 137.113 76.1755 137.334C76.1585 137.478 76.1925 137.682 76.0565 137.699C75.691 137.521 75.64 136.977 75.81 136.594C73.1835 136.152 71.3135 135.634 69.6815 133.9C69.2395 134.087 68.313 134.69 68.211 135.617C68.262 135.855 68.772 135.625 68.5765 136.11C67.497 135.617 66.936 136.441 66.375 137.334M45.669 139.535C46.2555 139.399 46.1025 140.003 46.4085 140.147C46.4255 140.003 46.383 139.799 46.5275 139.782C48.168 140.173 49.1455 140.564 50.1995 141.618C48.933 143.284 47.4115 140.827 45.788 140.64C45.448 141.184 45.9835 141.762 45.907 142.111C46.298 142.247 46.1875 142.119 46.6465 142.111C46.8165 142.272 46.7655 142.638 46.7655 142.969C48.049 143.479 48.8905 144.44 50.3185 144.805C51.2535 146.191 53.404 146.131 54.4835 146.522C54.815 146.123 55.2825 145.851 55.5886 145.417C55.274 145.485 55.1635 145.579 54.9765 145.298C55.4695 144.244 56.294 143.513 56.94 142.604C56.4385 141.133 57.9345 140.666 57.6795 139.416C58.215 139.178 58.3426 138.847 58.0451 138.311C57.7476 138.26 57.7815 138.532 57.433 138.43C57.501 138.184 57.7985 138.192 57.552 137.937C56.7105 137.886 56.0221 138.141 55.5971 137.325C55.2656 137.708 55.0445 136.943 54.6195 137.325C54.6195 136.552 53.4805 136.917 53.5145 136.101C53.302 136.093 53.132 136.127 53.0215 136.22C52.8515 136.067 52.9705 135.625 52.656 135.608C52.5795 135.77 52.3925 135.838 52.163 135.855C52.18 135.71 52.384 135.574 52.163 135.489C50.2165 135.591 48.576 134.656 46.6465 133.9C46.06 136.127 45.4225 137.606 45.669 139.535ZM73.1155 134.027C73.1325 133.883 73.311 133.891 73.481 133.9C73.5065 133.594 73.294 133.517 73.1155 133.407C72.937 133.636 72.784 133.823 73.1155 134.019M72.3761 133.526C72.8435 133.619 72.8435 132.939 72.3761 133.033V133.526ZM71.0245 132.914C71.2795 132.837 71.8745 133.109 71.764 132.667C71.441 132.667 71.0415 132.599 71.0245 132.914ZM93.439 135.489C93.1925 135.081 92.912 135.795 92.827 135.489C92.827 135.132 93.2011 135.132 93.3201 134.877C92.5806 134.979 92.7251 133.662 93.201 133.9C92.4871 133.56 92.1385 132.489 92.589 131.936C91.705 131.265 92.0535 130.296 91.977 129.242C91.62 129.157 91.5095 128.817 90.9995 128.876C90.1325 129.667 89.478 130.593 87.9395 130.959C87.846 131.86 86.656 132.82 86.2225 133.407C86.6645 136.577 87.574 139.085 87.4465 142.723C89.427 142.604 91.3905 140.793 92.8355 140.147C93.014 139.059 92.963 137.742 93.4475 136.96C93.167 136.628 92.6995 136.484 92.8355 135.736C93.1585 135.999 93.2435 135.413 93.4475 135.489M68.211 129.488C68.517 129.097 68.891 128.774 69.316 128.511C69.1035 128.46 69.3415 128.358 69.316 128.145C68.3045 127.873 68.0155 128.961 68.211 129.497M67.9645 131.698C67.276 131.97 66.9105 131.537 66.494 131.205C66.2305 130.202 65.899 129.267 64.9045 129.004C65.0065 128.655 64.7345 128.681 64.7855 128.392C64.1395 128.222 63.74 127.805 63.434 127.287C62.1505 127.321 61.8445 128.919 60.7395 129.004C60.323 130.177 58.742 130.194 57.9175 130.967C57.9005 131.911 57.212 132.574 57.7985 133.415C57.4585 133.526 57.2886 133.806 57.1866 134.155C57.9601 134.605 57.909 135.88 59.15 135.872C59.0735 136.407 59.8641 136.492 60.3741 136.977C60.7311 137.317 60.8671 137.903 61.2326 138.082C61.8361 138.379 63.1791 138.583 63.5616 137.835C63.1621 137.835 63.2641 137.308 62.8221 137.342C62.4396 137.283 62.3461 137.521 62.0826 137.589C61.9636 137.342 61.5385 137.393 61.5895 136.977C61.7935 136.45 62.5415 136.458 62.8136 135.999C63.6721 136.322 64.675 136.509 65.508 136.858C65.5845 136.526 66.0181 136.552 66.0011 136.118C65.8225 136.05 65.3635 136.263 65.389 135.999C65.8905 134.257 67.7775 133.9 68.33 132.2C68.296 131.953 67.9985 131.962 67.9645 131.707M59.6346 127.669C59.6601 127.491 59.8385 127.465 59.881 127.304C59.337 127.457 59.099 127.907 59.1415 128.655C58.844 128.893 58.351 128.927 58.283 129.395C59.7365 129.395 60.476 127.797 61.717 127.193C61.751 126.87 61.6745 126.666 61.3515 126.7C61.2325 126.93 61.717 127.108 61.3515 127.193C61.088 127.083 61.139 126.666 60.7395 126.7C60.323 126.981 60.4761 127.822 59.6346 127.678M60.7395 126.326C60.9095 126.326 61.0115 126.386 61.105 126.445C61.0115 126.114 61.3515 126.199 61.3515 125.961C61.139 125.961 60.969 125.935 60.8585 125.833C60.884 126.063 60.7225 126.105 60.7395 126.326ZM90.753 125.221C91.1015 125.119 91.0675 125.391 91.365 125.34C91.399 124.941 91.2206 124.754 90.8721 124.728C90.8806 124.941 90.8465 125.111 90.753 125.221ZM82.304 131.469C82.5335 131.418 82.8311 131.426 82.7971 131.103C82.4996 131.035 82.168 131.001 82.185 130.61C82.542 130.721 82.559 130.721 82.9245 130.61C82.6185 131.197 83.681 131.052 83.902 131.469C83.902 127.958 82.1595 126.182 80.842 123.997C78.9125 124.601 78.4195 124.286 76.558 124.363C76.065 126.19 73.0051 127.159 73.8636 129.14C73.6851 129.174 73.6595 129.344 73.498 129.386C73.175 129.386 73.2345 128.995 72.886 129.021C72.6395 129.548 71.8405 129.522 71.4155 129.879C71.356 130.976 72.648 131.486 73.7445 132.081C74.5605 133.101 75.5806 133.917 76.3201 135.022C76.7196 134.826 76.7875 135.047 77.2975 135.022C77.8415 134.41 79.312 134.639 79.7455 134.529C80.077 133.67 82.3041 134.138 82.8056 133.305C82.8736 132.905 82.7206 132.735 82.6866 132.446C82.9926 132.387 83.188 132.217 83.4175 132.081C82.542 131.902 82.8565 131.715 82.3125 131.469M74.5945 123.385C73.668 125.136 72.3165 125.731 71.407 127.431C72.104 128.426 72.801 126.981 72.9965 126.326C74.331 125.978 74.7475 124.082 75.691 123.751C75.7845 123.317 75.708 123.309 75.81 122.773C75.0705 122.654 75.2065 123.394 74.586 123.385M64.4201 123.266C64.3776 122.943 64.097 122.85 63.808 122.773C63.8335 123.13 64.0886 123.581 64.4201 123.266ZM52.1715 131.231C51.976 130.568 50.9561 130.729 50.8201 130.007C50.9986 129.641 52.027 130.253 51.7975 129.888C50.9815 129.82 50.48 129.225 49.834 129.641C49.953 129.14 49.8596 129.182 50.0806 128.783C50.0041 128.613 49.613 128.766 49.5875 128.536C49.4855 128.069 49.9445 128.162 49.953 127.797C49.5705 127.933 49.6045 127.873 49.46 127.55C49.868 127.746 50.157 127.338 50.4375 127.057C50.1995 128.961 52.4095 129.786 53.625 130.245C53.7185 129.871 53.2 130.092 53.3785 129.633C54.2455 129.871 54.73 130.483 55.342 130.984C55.648 130.517 55.8691 129.964 56.4471 129.76C56.5406 129.072 56.3875 128.885 56.566 128.29C55.7075 127.899 54.7215 127.491 55.0955 126.207C54.3645 126.105 53.9566 125.502 53.2596 125.723C52.9621 124.346 50.8625 124.779 50.3185 123.64C48.9075 123.598 48.0151 122.263 46.8846 121.558C46.9186 121.881 46.6295 121.872 46.3915 121.923C46.536 123.385 45.8646 124.227 46.1451 125.476C46.6806 125.918 47.7855 125.799 47.981 126.581C47.6665 127.21 47.0885 126.819 46.5105 127.193C46.5105 126.904 45.8645 126.624 45.652 126.947C46.4425 128.349 46.077 129.752 46.264 131.477C46.57 131.996 47.5306 131.919 47.7346 131.358C48.0831 131.52 48.8821 131.146 48.5931 131.97C48.7971 132.038 49.8426 131.843 50.1826 132.336C50.0211 132.421 49.953 132.599 49.936 132.829C50.65 132.973 51.7125 132.854 52.0185 133.687C53.302 133.432 53.2425 134.869 54.4665 134.299C54.1945 133.832 53.8715 133.424 53.608 132.956C54.0585 132.956 54.1095 131.673 53.608 132.098C53.744 132.123 53.9055 132.302 53.7355 132.344C53.659 132.174 53.2595 132.327 53.2425 132.098C53.6335 132.2 53.3956 131.171 53.3616 131.486C53.2596 131.537 52.6305 130.848 52.1375 131.239M89.5035 122.544C89.699 122.008 89.3505 121.524 89.6225 120.946C89.036 120.844 88.7895 119.586 88.883 118.863C88.5175 118.863 88.2625 118.506 88.5175 118.251C88.0245 118.251 88.0415 117.75 87.778 117.512C87.506 117.733 87.404 118.124 86.9195 118.124C87.1405 118.778 86.7155 119.229 86.18 119.475C86.316 119.501 86.367 119.611 86.4265 119.722C86.0015 119.747 86.0355 120.223 85.8145 120.461C85.585 120.58 85.4065 120.096 85.3215 120.461C85.364 120.631 84.9135 121.354 84.582 121.566C84.565 121.337 84.1655 121.49 84.089 121.32C83.953 121.813 84.14 121.991 84.089 122.671C83.5195 122.314 82.6695 122.612 82.4995 123.283C83.3835 123.504 83.375 124.839 83.6045 125.366C83.6555 125.136 83.6471 124.839 83.9701 124.873C84.0721 125.298 83.7915 125.34 83.8511 125.731C84.4291 126.071 84.0635 126.19 84.582 126.59C84.548 126.802 84.157 126.428 84.2165 126.955C84.361 127.1 84.65 127.091 84.956 127.074C85.1175 127.61 85.177 127.686 85.075 128.298C85.381 128.281 85.4576 128.069 85.5681 128.417C84.8881 128.698 85.5851 129.437 85.5681 130.134C85.2196 130.525 85.3215 131.137 85.3215 131.724C87.0215 130.44 88.1266 128.57 90.2261 127.686C90.2516 127.227 90.0985 126.581 90.4725 126.462C89.92 126.003 90.8125 125.485 90.2261 124.992C90.2601 124.711 90.549 124.711 90.719 124.873V124.38C89.9285 124.405 89.682 122.977 89.8605 122.544C89.8605 122.705 89.5206 122.697 89.4951 122.544M71.1181 119.237C71.1521 119.518 71.084 119.696 70.8715 119.73C69.707 120.147 67.854 121.583 66.579 120.954C66.681 121.566 66.154 121.558 66.46 122.059C66.086 121.966 66.222 122.399 65.848 122.306C66.035 123.266 65.1595 123.547 65.355 124.142C64.5475 124.465 64.6156 125.408 63.8846 125.859C63.8591 125.876 63.3405 125.595 63.519 126.105C64.0035 126.19 64.012 126.19 64.4965 126.105C65.0575 127.015 66.1625 127.38 66.46 128.553C66.9105 128.468 66.987 128.766 67.4375 128.672C67.7435 128.239 68.4831 128.247 68.6616 127.695C68.0836 127.312 68.823 126.989 68.5425 126.471C69.0525 126.343 69.843 125.799 70.506 126.471C70.5655 125.961 71.016 125.842 71.4835 125.74V125.247C73.1495 124.295 73.7701 122.986 75.0366 121.575C74.6966 121.014 73.8805 120.937 74.059 119.858C72.733 119.875 73.1155 117.537 72.223 117.529C72.4865 118.107 72.2231 119.339 71.1181 119.246M70.2596 116.917C69.9451 116.594 70.455 116.823 70.3785 116.424C69.707 116.517 70.1065 116.908 69.7665 117.282C70.0385 117.452 70.4295 117.656 70.625 117.282C70.438 117.172 70.744 116.517 70.8715 116.305C70.4465 116.288 70.6761 116.925 70.2596 116.917ZM70.2596 115.327C70.8971 115.429 71.1861 115.871 71.8491 115.939C71.8151 115.659 71.866 115.472 71.9765 115.327C71.5855 115.276 71.5345 114.486 71.73 114.222C71.5855 114.12 71.3986 114.061 71.1181 114.103C71.1691 115.123 70.6166 114.783 70.2596 115.327ZM57.025 125.009C57.2205 124.652 56.7955 124.694 57.025 124.15C57.552 124.269 57.501 123.81 57.8835 123.785C58.7505 124.099 58.912 125.119 59.6005 125.621C59.881 124.941 60.1275 124.703 60.9435 124.762C60.986 125.451 61.411 125.162 61.921 125.502C61.887 125.179 61.9636 124.975 62.2866 125.009C62.3291 124.312 61.938 124.082 62.1675 123.538C62.4225 123.572 62.2865 123.997 62.533 124.023C62.8475 123.674 62.3631 123.377 62.2866 123.045C62.9836 122.518 63.1535 121.464 64.25 121.328C64.25 120.674 64.8195 120.589 65.1085 120.223C64.59 120.257 64.3775 119.977 64.0035 119.858C63.9185 119.475 63.9185 119.62 64.0035 119.246C63.587 119.407 63.145 118.974 63.5105 118.753C63.91 118.6 63.604 119.152 64.0035 118.999C64.437 118.795 64.25 118.668 64.369 118.268C62.9155 117.495 63.2726 116.322 61.5471 115.82C61.6661 115.234 60.799 115.183 61.3005 114.596C60.629 114.775 60.6885 114.231 60.323 114.103C60.272 114.911 59.4645 114.894 59.711 115.693C58.3 117.121 57.433 119.543 56.5235 121.821C56.3705 121.821 56.3535 121.66 56.158 121.694C55.7245 122.697 55.6055 123.249 54.934 124.269C55.529 124.541 56.481 124.881 56.8975 124.635C57.127 124.703 56.753 125.298 57.0165 125M84.2165 113.117C84.429 113.338 84.7011 113.083 84.7096 112.752C84.3866 112.718 84.1825 112.794 84.2165 113.117ZM53.9565 121.694C54.3475 121.073 53.6675 120.98 53.591 120.47C54.0245 120.308 54.1435 119.968 54.084 119.492C54.3135 119.39 54.5345 119.288 54.815 119.246C54.866 120.011 55.172 120.291 54.696 120.716C54.9765 120.674 55.1635 120.733 55.308 120.835C55.359 120.538 55.087 120.572 55.189 120.223C55.8945 120.07 55.988 119.305 56.0475 118.506C57.416 117.274 57.5265 114.962 58.8695 113.976C58.7505 113.304 58.7845 112.565 58.504 112.259C57.212 110.873 53.693 110.142 51.5255 109.683C51.1005 110.95 50.514 111.341 49.562 112.131C49.8255 112.106 49.6215 112.565 49.6895 112.743C48.9585 112.879 48.8905 113.661 48.338 113.967C48.5335 113.976 48.763 113.95 48.7035 114.214C48.3125 113.899 48.1425 114.758 48.338 115.072C47.5815 115.582 47.505 116.424 47.114 117.036C47.3605 118.03 46.6806 118.268 46.9951 119.858C47.7601 120.317 48.61 120.691 48.831 121.694C50.718 122 51.1345 123.912 52.996 123.895C53.421 123.173 53.659 121.983 53.489 121.32C53.523 121.575 53.8205 121.566 53.982 121.685M54.475 109.071C55.053 109.564 55.9285 109.063 56.311 109.802C56.6255 109.139 57.535 109.071 57.9005 108.459C57.382 108.612 57.5775 108.051 57.2886 107.966C56.9656 108.136 56.6085 108.179 55.9455 108.332C55.903 107.609 55.155 107.924 55.087 107.473C54.883 108.009 54.7215 108.57 54.475 109.063M72.1125 110.414C72.7415 110.763 72.954 111.842 72.971 112.616C73.77 112.786 73.413 113.355 73.7105 113.959C73.3875 113.831 72.9115 113.763 72.971 114.324C73.26 114.324 73.328 114.112 73.7105 114.197C73.719 114.885 73.7785 114.775 73.957 115.302C73.5915 115.463 73.107 115.514 73.0985 116.033C73.5575 116.169 73.447 115.727 73.8295 115.786C73.8805 116.288 74.6455 117.461 74.4415 118.234C74.6795 118.268 74.688 118.064 74.807 117.988C74.824 118.285 74.824 118.574 74.688 118.727C74.977 119.025 74.9175 118.54 75.3 118.608C75.5635 119.042 75.487 119.178 75.3 119.586C75.9715 119.552 76.371 120.07 76.1585 120.563C76.405 120.538 76.6855 121.082 76.7705 120.81C76.609 120.81 76.6175 120.47 76.7705 120.444C77.5525 121.685 79.5075 121.082 80.689 121.796C81.0205 121.881 80.9355 121.549 81.182 121.549C83.1285 121.201 84.395 119.127 85.5935 117.631C85.7805 116.279 85.177 114.936 84.735 113.831C85.041 113.67 85.1175 114.316 85.228 113.95C84.973 113.916 85.1175 113.5 84.8625 113.466C84.701 113.976 84.225 113.279 84.004 113.1C84.3695 111.936 82.865 111.859 83.0265 110.525C82.4485 110.61 82.491 110.083 82.4145 109.666C81.386 109.547 81.0715 108.655 81.063 107.83C80.553 107.652 79.941 107.04 79.958 106.725C79.72 107.269 79.3461 106.989 78.9806 107.091C78.7851 107.142 78.5725 107.482 78.3685 107.584C77.3485 108.051 75.963 108.349 75.062 108.561C74.4755 108.697 74.042 109.156 73.5915 109.301C73.6 109.301 73.4046 109.012 73.2261 109.054C72.7331 109.156 72.342 109.734 72.002 109.666C72.444 109.777 72.0785 110.023 72.121 110.406M66.8511 105.382C65.4146 104.566 64.4795 105.187 63.5445 106.113C62.5075 105.986 62.431 107.286 61.581 106.972C60.629 108.553 58.47 109.02 57.416 110.159C57.824 110.202 57.96 110.516 58.521 110.406C58.504 110.712 58.4955 111.001 58.7675 111.018C59.2945 110.678 59.915 111.868 60.1105 112.616C60.7905 112.633 61.3005 112.191 61.7 112.616C61.3175 112.242 62.0401 111.111 61.3346 110.652C61.5301 110.321 61.8106 110.066 62.1931 109.913C62.8816 110.482 63.519 112.148 63.0515 113.1C63.3065 113.619 63.8675 113.84 64.403 114.086C65.1085 113.568 64.8705 112.106 65.508 111.511C65.1425 111.196 65.3295 110.567 65.627 110.287C65.627 110.661 66.2475 110.406 66.239 110.78C66.0775 112.658 65.8055 114.656 67.2165 115.557C67.3695 114.69 67.4461 113.661 68.5596 113.474C69.1291 113.746 68.7891 114.46 69.2991 114.945C69.4096 113.304 70.285 112.42 71.016 111.392C70.3785 110.593 69.8855 109.581 70.285 108.57C69.469 108.051 69.8515 106.742 68.3215 106.487C68.398 107.133 68.8655 106.657 69.061 107.099C68.704 107.448 68.67 107.626 68.9335 108.077C68.5595 108.026 68.313 108.4 68.194 107.958C68.6105 107.66 68.228 107.031 67.9475 106.734C68.0665 106.411 68.2875 106.181 68.313 105.756C67.395 105.85 68.143 104.294 67.3355 104.286C67.4715 104.957 67.1315 105.144 66.8425 105.391M55.8181 105.391C56.1241 105.824 57.0335 105.221 57.042 106.122C56.43 106.292 56.4045 105.476 55.937 105.875C56.2175 106.844 57.671 107.142 58.266 106.241C57.875 106.419 57.3055 106.309 57.161 106.241C57.314 106.079 57.5265 106.003 57.28 105.748C58.1045 105.816 57.875 104.294 57.773 103.419C56.43 103.376 56.4896 104.745 55.8096 105.382M58.385 103.053C58.997 103.495 59.2945 104.94 58.6315 105.017C58.7675 105.042 58.8185 105.153 58.878 105.263C58.691 105.28 58.4275 105.221 58.385 105.382C58.9035 105.382 58.198 106.028 58.6315 106.241C59.4475 105.909 61.717 105.552 61.4535 104.158C61.4705 104.668 60.6376 104.252 60.5951 104.039C60.6631 103.495 61.071 103.291 61.4535 103.062C61.8615 103.385 62.329 103.657 63.1705 103.555C63.0685 103.164 63.4935 103.3 63.536 103.062C63.2555 103.011 63.553 102.39 63.1705 102.45C62.3035 102.424 59.6175 102.824 58.3935 103.062M70.8885 101.345C70.7441 101.889 70.2085 102.059 69.537 102.084C69.554 102.433 69.758 102.594 69.7835 102.943C69.3755 102.858 69.384 103.198 69.1715 103.308C69.5455 103.393 69.4095 103.393 69.7835 103.308C70.0725 103.64 69.5625 104.005 69.9025 104.286C70.387 103.844 70.319 105.238 70.642 105.017C70.523 105.535 69.894 104.847 69.9025 105.382C70.013 105.722 70.3956 105.093 70.2681 105.748C70.4806 105.756 70.6505 105.722 70.761 105.62C71.271 106.36 71.5345 107.091 71.492 107.949C74.0505 107.371 76.7025 106.47 78.4705 105.501C78.105 105.382 77.986 105 77.7395 104.762C77.969 103.334 76.779 103.053 76.269 101.574C76.235 101.744 75.997 101.71 75.9035 101.821C75.215 99.3645 72.427 101.54 70.88 101.328M61.1985 101.209C62.329 101.464 62.397 101.353 63.4 101.209V100.469C62.975 100.316 61.0285 100.036 61.1985 101.209ZM64.998 100.104C65.95 100.248 66.4345 100.877 67.327 101.081C67.3525 100.945 67.463 100.894 67.5735 100.835C67.4885 100.146 66.9445 99.917 66.715 99.3645C65.9585 99.3985 65.355 99.4325 64.998 100.104ZM52.6221 97.2905C52.6986 96.7975 52.1545 96.942 51.7635 96.925C51.7381 97.622 52.3416 96.942 52.6221 97.2905ZM62.057 96.925C62.8815 97.333 63.7315 97.639 64.505 97.7835C64.7685 97.3075 64.828 96.636 65.2445 96.313H64.7515C64.828 97.367 64.2245 96.398 64.1395 97.0525C63.7825 96.7975 63.4 96.5595 63.162 96.194C63.23 96.194 63.298 96.092 63.162 96.0665C62.771 96.33 62.329 96.5425 62.057 96.925ZM68.3045 94.103C68.6615 94.103 68.7635 93.8225 68.9165 93.61C68.619 93.678 68.2875 93.712 68.3045 94.103ZM56.6681 94.4685C56.4471 94.4855 56.379 94.3495 56.4215 94.103C55.4695 94.324 54.5346 93.44 53.3616 93.1255V93.6185C55.7756 94.579 56.855 95.8115 59.49 96.194C59.5835 96.6445 60.578 96.942 60.8415 96.313C59.507 95.2845 58.0875 95.429 56.7955 94.596C57.178 94.46 57.076 94.5875 57.5265 94.596C57.433 94.1625 56.2686 94.137 56.6681 94.4685ZM64.386 89.938C64.3605 90.1675 64.522 90.21 64.505 90.431C64.3605 90.448 64.1565 90.4055 64.1395 90.55C64.5135 90.465 64.59 90.6775 64.879 90.669C64.981 90.5245 65.0405 90.3375 64.998 90.057C64.76 90.091 64.7516 89.887 64.6326 89.8105C64.6071 89.904 64.5305 89.955 64.386 89.9295M59.4815 91.6465C59.0055 91.23 58.4785 90.856 57.892 90.5415C57.994 90.89 57.722 90.8645 57.773 91.1535C58.5125 91.298 58.793 91.6125 59.49 92.012C59.5495 91.8675 59.6176 91.7315 59.7366 91.6465C59.5071 92.2925 60.5695 92.0035 60.102 92.505C60.561 92.25 60.5355 92.573 60.833 92.7515C61.0625 92.0205 61.4195 93.3125 61.6915 92.879C61.6575 92.709 61.632 92.2245 61.1985 92.1395C61.4195 91.57 61.7595 90.533 62.057 89.6915C61.683 89.7765 61.6066 89.564 61.326 89.5725V90.55C61.0371 90.584 60.8161 90.788 60.5866 90.55C60.3741 91.0685 59.915 91.349 59.4815 91.655M79.448 105.374C79.7285 105.331 79.6096 104.881 79.8135 104.762V105.255C79.9836 105.255 80.0855 105.314 80.179 105.374C80.179 105.204 80.2385 105.102 80.3065 105.008C80.0855 104.898 79.9495 104.711 79.6945 104.643C79.6435 104.847 79.1165 105.195 79.448 105.382M69.4011 86.147C68.0751 86.3765 68.2026 88.051 67.0721 88.476C67.8796 89.3005 65.61 89.7935 66.7065 90.5585C66.5195 90.941 66.5535 91.553 65.9755 91.536C66.4345 92.2245 65.6185 92.5985 65.729 93.6185C64.9725 93.5505 65.4486 94.7235 64.6241 94.596C64.3436 94.2985 64.7516 94.001 64.7431 93.6185C64.5221 93.389 64.2925 93.168 63.7655 93.253C63.8165 92.9555 63.5445 92.9895 63.6465 92.641C62.9665 92.607 62.244 92.3265 61.9295 92.8875C62.312 93.015 62.907 92.862 63.519 93.0065C63.9355 94.1795 64.743 94.97 65.236 96.0665C66.4175 94.1455 67.344 91.9695 69.0355 90.55V90.057C69.401 90.023 70.1916 89.445 70.2596 88.7055C72.9796 87.966 75.198 88.102 77.612 87.966C78.1985 89.3345 76.3455 89.853 76.1415 90.7795H75.6485C74.9515 92.0035 73.3621 92.335 72.5886 93.474C72.3931 93.508 72.376 93.355 72.223 93.3465C71.6705 95.0125 69.6305 95.7945 69.6475 97.639C69.401 97.843 69.4945 97.6305 69.1545 97.639C69.1885 98.659 70.1236 99.7385 69.4011 100.945C71.7556 100.078 74.11 99.3475 76.7535 99.8405C76.575 100.996 78.6575 100.843 78.836 102.042C78.598 101.812 78.5301 102.025 78.2241 102.042C78.1051 102.416 78.9975 102.39 78.5895 102.654C78.7425 103.002 78.9465 102.118 79.2015 102.535C78.904 103.41 79.6945 103.478 79.941 104.124C79.6945 104.082 79.5585 104.15 79.5755 104.371C80.434 104.796 81.2246 105.459 82.1511 105.476C82.4741 106.785 83.358 108.468 83.987 109.029C84.106 109.131 84.089 109.029 84.3525 109.029C84.0465 109.76 85.0665 109.955 85.0835 110.746C84.7775 110.729 84.701 110.933 84.4715 110.992C85.2535 111.069 84.956 111.766 84.9645 112.097C85.3725 112.055 85.16 111.4 85.5765 111.358C86.1545 111.63 85.5256 112.318 85.4576 112.709C85.6786 112.777 85.976 112.599 86.316 112.463C86.3925 112.769 85.8655 113.415 86.435 113.44C86.0695 113.831 86.3585 114.129 86.554 114.545C86.6985 114.358 86.8601 114.197 87.0471 114.052C87.1491 114.027 87.166 114.103 87.166 114.171C87.149 114.316 87.1915 114.392 87.285 114.418C86.537 114.137 87.183 114.86 87.285 115.642C87.7185 115.633 88.1265 115.582 88.2625 115.276C88.6365 115.472 88.866 115.82 89.002 116.254C89.223 116.271 89.2571 116.101 89.4951 116.135C89.5291 116.5 90.2346 117.18 89.4951 117.24C90.2006 117.469 90.056 117.886 90.6 117.852C90.4215 117.996 90.4131 118.319 90.2346 118.464C90.5491 119.365 91.2035 120.3 90.8465 121.039C91.025 121.269 91.314 121.388 91.3395 121.779C91.076 121.838 91.1016 121.6 91.0931 121.413C90.8126 121.379 90.957 121.77 90.7275 121.779C90.8805 122.093 90.9825 122.161 91.3395 122.025C91.365 123.436 92.0365 123.972 92.079 125.085C91.552 125.153 91.8156 125.544 91.8326 125.944C91.0591 125.986 91.518 126.709 91.467 127.287C92.079 127.202 92.419 127.397 92.9375 127.414C93.5495 128.604 93.9405 129.31 93.6685 130.967C93.6855 131.112 93.8895 131.069 94.034 131.086C94.034 131.409 94.102 131.809 93.7875 131.826C93.8725 131.987 94.1616 131.715 94.2806 132.072C94.2806 132.446 94.0255 132.548 93.915 132.803C94.17 133.118 94.357 133.509 94.527 133.908C94.4505 134.274 94.2635 133.789 94.034 133.908C94.085 134.18 94.2465 134.342 94.527 134.401C94.051 136.365 94.8926 138.864 94.2806 140.283C93.8216 140.402 93.7875 140.929 93.541 141.261C94.493 142.442 93.8215 144.355 94.153 145.545C93.9405 146.029 93.6855 146.463 93.7875 147.262C93.0565 148.01 93.2775 149.429 93.0565 150.203C92.6485 150.288 92.861 149.948 92.9375 149.837C92.5125 151.121 91.3225 152.166 89.9965 152.897C90.413 153.543 90.3111 154.708 90.9741 155.099C90.9146 155.413 90.804 155.66 90.6085 155.838C90.6255 155.983 90.8296 155.94 90.9741 155.957C90.6341 157.181 90.413 158.303 89.869 159.757C88.917 160.139 88.5855 160.649 88.152 161.346C89.291 162.001 89.9455 162.638 90.362 164.168C89.665 164.066 90.1496 163.701 89.3846 163.675C89.3931 163.293 89.104 163.344 89.019 162.817C88.424 163.046 89.308 163.148 89.138 163.675C88.9 163.998 88.1605 163.947 88.5261 164.534C88.1691 164.746 87.6676 164.823 87.0556 164.78C87.0726 164.075 86.2905 164.151 86.3245 163.429C85.704 164.015 86.0441 164.806 85.3471 165.265C84.9816 165.061 84.99 164.474 84.9815 163.913C84.293 165.375 82.8905 166.693 82.287 167.832C82.0235 167.466 81.2246 168.299 80.5701 168.325C80.4171 168.163 80.2046 168.087 80.451 167.832C79.7541 167.781 79.6095 168.197 79.227 168.078C79.108 168.75 78.6746 169.906 78.1221 170.526C77.6291 170.441 77 169.838 76.779 170.526C76.5155 170.399 76.1841 170.033 76.4136 169.787C75.5721 170.042 75.64 171.223 74.331 171.011C74.6625 169.991 74.7645 169.498 75.555 168.928C75.5465 165.588 72.852 167.203 70.659 166.965C70.744 166.48 70.9395 166.098 71.152 165.741C70.047 165.146 68.6445 165.163 67.2335 165.129C66.3835 165.112 65.6525 164.568 64.9045 164.517C63.6975 164.432 62.788 165.282 61.717 165.494C61.4875 165.146 61.8446 164.534 61.9636 164.143C62.1506 164.381 62.482 163.93 62.5755 164.389C62.941 164.185 63.077 163.743 63.434 163.531C63.1875 162.961 62.3036 163.021 61.9636 162.553C60.4421 163.089 58.334 162.001 57.552 160.59C57.5945 161.329 56.9656 160.879 56.4471 160.709C56.3876 160.241 57.0165 160.462 56.8125 159.85C57.0675 160.224 57.6286 159.782 58.0366 159.604C58.0111 159.136 57.2461 159.408 57.2971 158.864C57.1696 158.941 57.1695 159.145 56.9315 159.111C56.838 158.839 56.6765 158.635 56.685 158.252C56.464 158.235 56.43 158.405 56.192 158.371C56.209 158.142 56.2771 157.963 56.4385 157.878C56.1581 157.419 55.6905 157.547 55.0955 157.632C55.1975 157.241 54.9001 157.249 54.8491 157.02C54.6366 157.02 54.5345 157.113 54.4835 157.266C54.356 157.19 54.3561 156.986 54.1181 157.02C54.5431 156.552 54.1691 156.501 53.9991 156.042C53.7866 156.042 53.6845 156.136 53.6335 156.289C52.9195 155.201 51.143 156.654 50.6925 155.43C50.3355 155.796 50.4206 155.184 49.9616 155.311C50.0381 154.164 48.6355 153.781 48.984 153.11C48.066 152.26 47.0461 151.333 46.7826 150.169C47.1991 150.39 47.199 149.982 47.641 149.922C46.9525 149.506 46.8761 148.477 45.9241 148.333C46.4086 147.95 45.6775 147.848 46.0515 147.228C45.788 147.041 45.5925 146.786 45.3205 146.616C45.3205 146.327 45.533 146.259 45.4395 145.876C45.21 146.641 44.9635 145.443 44.8275 145.018C45.091 145.222 45.38 144.661 45.3205 144.159C44.9295 143.853 44.4111 143.675 44.3431 143.054C44.5386 143.02 44.5555 143.173 44.7085 143.182C44.2835 142.604 44.564 142.57 44.462 141.958C44.241 141.941 44.207 142.111 43.969 142.077C44.36 141.422 43.527 141.346 43.85 140.853C43.4675 140.793 43.374 141.116 43.119 140.853C43.765 140.156 43.102 138.855 43.612 138.405C43.425 138.26 43.3145 138.048 43 138.039C43.3995 137.223 44.1475 136.348 43.612 135.345C43.5865 135.081 43.714 134.954 43.9775 134.979C43.4165 134.206 44.2496 133.594 44.3431 132.778C44.6321 133.152 44.4195 132.829 44.836 132.778C44.8785 132.574 44.7425 132.548 44.5895 132.531C45.822 131.426 44.6235 129.65 44.955 127.882C44.836 127.712 44.6235 127.644 44.5895 127.389C44.564 127.117 44.6915 126.998 44.955 127.023C45.0655 126.054 44.4196 125.85 44.3431 125.06C44.5726 124.958 44.7936 124.856 45.0826 124.813C45.1506 123.708 45.516 122.629 45.329 121.626C45.669 121.396 45.9495 121.107 46.1875 120.767C45.006 119.39 45.7455 118.353 45.941 117.095C46.8505 117.18 46.111 116.177 46.7995 116.237C46.91 113.423 49.698 111.655 49.987 109.012C50.242 108.91 50.4631 108.51 50.7181 108.765C50.6586 108.374 50.939 108.332 50.837 107.907C51.602 107.805 51.704 107.805 52.4265 107.66C52.5115 107.992 52.1715 107.898 52.061 108.026C52.1205 108.417 52.843 108.145 52.8005 108.638C53.115 108.459 53.2595 108.119 53.659 108.026C53.659 107.813 53.5655 107.711 53.4125 107.66C54.1265 107.167 54.424 106.394 54.271 105.578C54.492 105.595 54.526 105.425 54.764 105.459C55.342 103.521 56.2006 102.271 58.6826 102.025C59.9151 101.6 60.1785 100.962 60.765 99.9425C60.765 99.7555 60.187 100.002 60.034 100.07C60.051 100.367 60.051 100.656 59.915 100.801C59.626 100.758 59.456 100.605 59.0565 100.682C58.64 101.583 57.892 101.243 57.3395 101.047C57.6625 100.767 57.0165 100.724 57.3395 100.435C56.974 100.359 56.6 100.282 56.6 99.8235C55.9965 99.7555 55.291 99.747 55.0105 99.084C54.9 99.1775 54.73 99.22 54.5175 99.2115C53.4125 97.9365 50.735 98.8375 49.2475 98.1065C48.4315 98.2595 46.944 98.6845 46.06 98.2255C45.2865 98.5995 44.5301 98.1065 43.4846 98.1065C43.6886 96.585 45.2525 97.01 45.8135 96.024C46.74 95.9305 48.2615 95.48 48.8735 94.6725C50.0635 94.8425 51.279 94.001 52.061 93.083C52.027 92.947 51.8145 92.998 51.8145 92.8365C51.228 92.862 51.347 93.593 50.5905 93.4485C50.6585 92.828 50.4885 93.117 50.225 92.9555C50.225 90.873 47.879 90.89 46.553 89.768V88.9095C46.1195 88.731 45.4905 88.748 45.448 88.17C44.8785 88.2295 44.6491 88.3145 44.2241 88.051C44.1391 87.4305 44.394 87.1585 44.4705 86.6995C48.491 87.201 52.962 88.9775 56.107 90.3715C56.243 90.3375 56.192 90.125 56.3535 90.125C55.7415 88.6885 53.744 88.0085 53.4125 86.6995C52.6985 85.943 52.316 84.855 51.211 84.498C51.262 83.8605 50.7435 83.6055 50.9645 83.1465C50.225 82.781 49.664 82.237 49.1285 81.676C49.4855 81.5315 49.4091 81.098 49.0096 81.064C49.0946 80.9535 49.2305 80.877 49.375 80.8175C48.6355 80.8005 48.4826 80.248 48.2701 79.4745H47.4116C47.3521 79.211 47.59 79.2365 47.777 79.228C46.9865 78.9135 47.267 77.545 46.553 76.899C46.723 76.6525 47.369 76.253 47.046 75.9215C47.063 75.6495 47.5645 75.8705 47.777 75.8025C51.585 79.1345 54.2965 83.5715 58.317 86.708C57.909 85.0505 57.8751 83.393 56.9741 81.931C56.9571 81.625 57.161 81.5485 57.3395 81.438C56.4725 80.3585 56.821 79.0325 56.362 78.004C56.4725 77.7915 56.634 77.6215 56.855 77.5195C56.838 77.29 56.4385 77.443 56.362 77.273C56.5575 75.845 55.8521 73.5415 55.3846 71.6375C55.2996 71.306 55.6395 71.3995 55.75 71.272C55.376 71.289 54.39 69.725 55.257 68.943C54.4495 68.246 54.798 67.5575 55.138 66.614C55.461 67.056 55.733 66.529 55.75 66.002C56.9995 65.934 57.2205 67.6 57.1015 68.824C57.654 69.878 57.433 71 58.453 71.646C58.062 73.159 59.8216 74.4085 59.4306 75.93C59.8641 76.236 60.0935 76.7375 60.5355 77.035C60.1785 77.6385 60.6715 77.9445 60.289 78.378C61.2665 79.976 60.9605 82.458 62.2525 84.379C62.3545 84.3535 62.3716 84.26 62.4991 84.26C62.5416 84.0475 62.4055 84.0305 62.2525 84.0135C62.363 83.801 62.482 83.5885 62.8645 83.648C64.2245 80.163 65.3465 76.6015 67.0295 73.7285C67.4715 73.6945 67.48 74.094 67.888 74.094C67.4885 74.417 68.0751 75.0035 67.3951 74.9525C67.2846 75.352 67.7945 75.1225 67.888 75.318C67.395 76.406 67.9815 77.6555 67.157 78.6245C67.276 78.9645 67.48 78.446 67.65 78.7435C67.2505 79.823 67.378 80.826 66.1795 81.438C66.9105 81.7355 66.562 82.611 65.933 82.7895C66.0945 83.563 65.6866 83.767 65.6866 84.379C65.8056 84.7275 66.0095 84.2005 66.1795 84.5065C66.1115 84.8805 65.7375 84.9655 65.4485 85.1185C65.5165 85.212 65.576 85.314 65.5675 85.484C67.9305 83.682 69.095 80.6815 71.696 79.109C72.7755 79.7465 74.5606 79.6785 75.3681 80.5795C75.1471 80.877 75.0281 81.268 75.2491 81.6845C75.0451 81.846 74.841 82.0075 74.3905 81.931C74.3735 82.152 74.5436 82.186 74.5096 82.4155C73.3706 82.2965 72.7501 82.696 72.0616 83.0275C72.2656 84.7105 69.3415 84.3875 69.486 86.0875" fill="#6C9C30"/>
<path d="M128.051 153.637C128.179 154.3 127.533 154.801 127.074 155.226C126.963 156.11 128.221 156.246 127.685 156.816C127.991 157.122 128.757 156.969 128.791 157.555C129.921 157.419 130.949 157.181 131.731 156.697C131.374 155.779 132.871 155.855 132.709 154.733C131.162 154.393 130.227 154.716 129.275 153.628C128.773 153.849 128.901 153.841 128.544 153.509C128.51 153.79 128.213 153.79 128.051 153.628M139.203 152.404C139.059 152.226 139.059 152.098 139.203 151.911C138.855 151.971 138.685 152.209 138.345 152.277C138.506 153.705 136.823 153.509 136.143 153.994C135.31 154.58 135.352 155.617 134.553 156.195C134.987 156.629 135.14 156.331 135.531 156.323C136.398 156.289 137.801 156.535 138.353 156.442C140.385 156.119 140.427 154.954 140.928 153.135H141.294C140.818 152.226 142.254 151.053 141.906 150.687C141.149 151.401 140.682 152.404 139.212 152.404M121.574 151.18C122.679 149.752 123.325 151.087 123.537 152.285C123.189 153.042 120.809 153.067 121.089 151.546C121.344 151.656 121.642 151.231 121.336 151.18C120.945 151.682 120.18 151.826 119.866 152.404C120.282 152.719 119.84 152.931 119.866 153.263C120.631 152.855 120.648 153.883 120.724 154.121C120.954 153.824 121.294 154.444 121.583 154.487C122.475 154.444 123.044 154.07 123.665 153.747C123.656 154.674 122.9 154.869 122.56 155.464C124.353 156.926 124.855 154.402 125.985 153.747C125.458 153.722 126.257 153.382 125.866 153.016C126.266 152.923 126.402 152.574 126.606 152.277C125.628 151.503 124.09 150.619 125.016 148.724C124.268 148.494 123.299 148.273 122.687 148.239C122.73 149.115 121.574 150.322 121.583 151.18M140.691 150.203C140.963 149.982 141.192 149.727 141.549 149.591C141.932 149.701 141.949 150.169 142.28 150.322C143.419 149.319 142.646 146.939 143.87 146.769C143.785 146.284 143.785 146.276 143.87 145.791C142.892 145.366 142.204 145.757 141.422 145.298C141.133 146.361 141.226 148.664 140.691 150.203ZM120.231 148.367C119.806 148.333 120.24 148.035 119.985 148.001C119.985 148.163 119.644 148.154 119.619 148.001C119.704 147.542 120.027 148.086 120.112 147.636C119.789 147.1 118.93 147.109 118.641 146.531C118.361 147.219 117.536 145.927 117.052 146.412V146.046C116.474 146.114 116.032 146.216 115.581 145.919C115.454 145.383 115.998 145.519 115.947 145.06C115.293 144.814 114.74 144.474 114.476 143.836C113.448 143.811 111.952 144.006 112.275 142.731C111.697 142.68 112.045 143.564 111.416 143.462C111.246 143.267 111.315 142.833 111.051 142.731C110.686 143.445 110.847 144.754 111.051 145.919C111.213 146.828 111.714 147.755 111.782 148.613C112.292 148.639 112.793 149.157 112.394 149.718C113.082 149.625 112.997 149.837 112.887 150.33C113.507 150.194 113.507 150.696 113.745 150.942C115.003 151.197 116.627 150.398 117.91 150.696C117.825 150.407 118.378 149.701 118.522 149.225C118.854 149.455 118.548 149.642 118.769 149.837C118.905 149.395 119.372 149.854 119.5 149.591C119.143 149.353 119.049 149.319 118.769 149.225C119.109 149.055 118.922 148.35 119.5 148.732C119.551 148.435 119.279 148.469 119.381 148.12C119.738 148.061 120.086 148.63 120.239 148.367M136.653 141.873C135.531 142.944 134.35 143.275 132.607 143.59C131.944 143.224 131.001 142.655 130.159 142.85C129.632 145.902 126.937 147.16 127.464 150.568C129.955 151.971 133.244 153.849 136.406 152.532C137.044 151.291 137.911 150.279 138.854 149.344C139.058 148.375 138.854 147.738 139.466 147.262C138.956 146.488 138.906 145.545 139.101 144.814C138.591 144.737 138.276 145.358 137.877 144.814C138.268 144.678 138.761 144.635 138.982 144.321C138.379 143.335 137.614 142.502 136.653 141.873ZM147.558 137.215C147.482 136.654 147.626 136.501 148.051 136.722C148.068 136.373 147.703 136.416 147.558 136.229C147.303 136.475 147.346 137.325 147.558 137.206M147.558 135.608C147.754 135.821 148.187 135.719 148.298 135.489C147.864 135.455 148.519 134.945 148.17 134.996C147.966 135.166 147.49 134.928 147.558 135.608ZM147.805 134.75C147.839 134.248 147.89 134.376 148.17 134.019C147.924 134.019 148.017 133.687 147.677 133.772C147.754 134.07 147.525 134.665 147.797 134.75M136.645 134.138C136.645 133.925 136.551 133.823 136.398 133.772C136.296 134.308 135.905 134.495 135.539 134.138C135.522 134.282 135.556 134.486 135.42 134.503C134.723 133.985 134.112 134.758 132.845 134.631C133.151 135.472 132.794 136.62 132.106 136.467C132.726 136.858 132.284 137.58 132.718 138.056C131.995 137.844 132.445 138.736 131.612 138.668C131.366 139.11 131.196 140.164 130.754 140.02V140.759C131.425 141.099 132.199 140.683 132.837 141.125C133.687 140.351 134.409 141.72 135.65 141.006C135.539 140.394 136.041 140.479 135.769 140.028C136.27 139.79 136.823 139.612 136.993 139.051C136.713 139.085 136.534 139.017 136.5 138.804C136.738 138.558 136.67 137.988 136.993 137.827C136.067 137.495 137.367 137.147 136.627 136.722C136.313 137.223 135.557 136.79 135.038 136.722C135.208 135.379 136.389 135.047 137.239 134.393C137.214 134.01 137.155 133.662 136.747 133.653C136.73 133.84 136.789 134.104 136.627 134.146M130.745 137.453C130.278 137.13 131.051 137.036 130.992 136.713C130.592 136.654 130.729 135.702 131.111 136.101C131.043 135.625 130.822 135.217 131.358 134.996C131.111 134.716 130.95 134.444 131.239 134.019C130.635 134.163 130.031 133.492 129.275 133.407C127.49 134.707 125.102 133.305 123.274 134.146C123.589 134.163 123.699 134.367 123.886 134.512C120.903 133.823 122.11 137.75 120.087 137.334C118.956 138.974 118.633 140.751 117.026 141.992C117.426 142.672 116.559 142.723 116.533 143.343C117.987 144.576 120.308 146.14 122.535 145.791C123.274 146.301 123.656 146.607 124.617 147.015C124.77 146.522 125 146.973 125.476 146.896C125.62 145.647 126.504 144.839 126.087 143.709C127.711 142.884 128.501 141.218 129.394 139.671C129.241 139.654 129.105 139.629 129.147 139.425C129.309 139.391 129.377 139.246 129.641 139.297C129.394 138.099 130.235 137.521 130.745 137.461M142.016 132.803C140.826 133.109 139.704 133.084 138.829 133.415C138.786 134.155 139.007 134.69 138.71 135.132C138.752 135.583 139.016 135.804 139.076 136.229C138.489 137.045 138.565 138.541 138.829 139.535C138.327 139.654 138.651 139.841 138.464 140.275C138.855 140.521 139.186 141.49 139.441 141.745C139.9 142.187 142.28 143.862 142.875 143.947C144.77 144.236 144.558 142.714 144.958 141.133C144.958 140.887 144.626 140.98 144.711 140.64C145.383 140.428 144.839 139.816 144.958 139.416C145.026 139.178 145.366 139.059 145.451 138.804C145.391 139 145.17 137.852 145.697 138.065C145.731 137.827 145.536 137.818 145.451 137.699C145.663 137.699 145.833 137.674 145.943 137.572C146.037 137.121 145.646 136.892 145.943 136.594C145.765 136.322 145.646 136.747 145.578 136.467C146.207 135.617 145.841 134.648 146.071 133.645C144.923 133.339 143.359 133.704 143.742 132.914C143.172 133.041 142.671 133.296 142.025 132.795M115.811 129.607C116.109 129.157 115.259 128.978 115.199 128.502C112.216 128.536 114.808 133.296 116.423 133.152C116.363 134.384 117.936 134.962 118.506 135.974C119.279 135.761 119.424 134.928 120.588 135.115C120.877 134.707 120.664 134.546 120.953 134.138C120.562 134.036 120.571 134.333 120.341 134.384C120.367 134.078 120.155 134.002 119.976 133.891C119.925 134.129 119.933 134.418 119.61 134.384C119.483 133.152 120.52 133.169 121.327 132.421C120.698 132.2 120.163 131.868 119.985 131.197C119.364 131.316 119.407 130.814 118.395 130.95C118.633 132.038 118.505 132.795 118.641 133.645C118.293 133.976 117.375 133.883 117.171 133.398C117.596 132.973 117.239 132.684 116.806 132.667C116.925 132.327 117.129 132.846 117.299 132.54C117.265 132.047 116.678 132.098 116.687 131.562C116.899 131.001 117.638 130.959 117.783 130.338C116.984 130.398 116.567 129.718 116.44 129.48C116.457 129.743 116.007 129.539 115.828 129.607M112.641 131.571C112.437 131.571 112.572 131.231 112.394 131.205C112.317 131.367 112.131 131.435 111.901 131.452C112.105 130.109 112.403 128.417 111.162 127.78C111.145 126.904 110.856 126.284 110.303 125.944C110.227 125.68 110.652 125.553 110.184 125.578C110.295 126.377 109.921 126.615 110.184 127.049C110.201 126.904 110.218 126.76 110.431 126.802C110.329 128.332 110.762 128.919 110.796 129.99C111.025 130.007 111.204 130.066 111.289 130.236C111.017 130.415 111.442 130.534 111.17 130.602C110.346 130.219 110.685 129.429 109.946 129.012C110.056 130.831 108.977 131.469 109.334 133.424C108.722 134.002 109.241 134.818 108.595 135.013C108.85 136.39 108.484 137.665 108.229 138.685C108.271 139.085 108.875 139.323 108.476 139.79C109.47 139.34 109.802 140.666 111.051 140.649C111.255 140.895 111.043 140.802 111.051 141.142C112.301 141.031 113.423 142.009 114.851 142.119C114.919 141.864 115.088 141.609 115.343 141.873C115.309 141.346 115.284 140.827 115.837 140.895C116.1 139.688 116.72 138.838 117.553 138.201C117.63 137.903 117.732 137.64 117.672 137.223C117.273 137.317 117.171 136.696 116.933 136.484C116.78 136.356 116.516 136.518 116.321 136.365C116.023 136.127 115.292 134.979 115.343 135.013C115.097 134.852 114.664 135.132 114.851 134.52C114.375 134.435 114.417 134.52 114.111 134.401C113.967 133.985 114.196 133.883 113.992 133.662C113.414 134.206 112.598 133.764 112.275 133.169C112.878 132.897 112.215 132.31 112.156 131.945C112.283 131.834 112.19 131.494 112.522 131.579C112.522 131.647 112.624 131.715 112.649 131.579M125.144 123.122C125.416 123.113 125.331 124.065 125.637 123.615C125.713 123.462 125.85 122.391 125.272 122.025C125.357 122.637 125.373 122.68 125.152 123.13M136.177 123.623C135.709 123.776 136.458 124.32 135.812 124.601C136.492 125 135.641 126.598 136.304 127.049C136.559 126.904 136.661 126.59 137.035 126.556V127.049C136.007 127.312 135.956 129.114 135.812 129.871C135.633 129.726 135.505 129.726 135.318 129.871C135.318 130.27 135.522 130.483 135.437 130.976C135.208 130.746 135.132 130.959 134.826 130.976C134.919 131.605 134.596 131.809 134.095 131.834C134.307 132.31 134.324 132.557 134.095 132.939C134.792 133.407 135.233 132.914 136.058 133.058C136.083 132.829 135.922 132.786 135.939 132.565C135.454 132.472 135.302 132.616 135.081 132.446C135.718 131.979 136.364 131.52 137.163 131.222C138.906 132.149 140.427 130.772 141.94 130.364C142.135 129.624 142.246 128.791 142.799 128.4C142.314 128.018 142.748 126.7 142.918 126.564C142.799 126.19 142.594 125.91 142.552 125.459H142.918C142.731 124.584 141.94 124.32 142.059 123.13C141.592 123.232 141.583 122.875 141.447 122.646C140.912 122.569 139.943 122.858 139.611 122.28C139.237 122.51 139.263 122.382 138.872 122.527C138.566 121.226 134.842 121.949 136.177 123.632M143.529 121.796C143.92 122.884 144.363 123.173 144.507 124.49C145.034 124.762 145.238 124.116 145.85 124.125C146.062 124.771 145.79 125.383 144.991 125.349C144.779 126.063 144.864 126.505 144.252 126.938C144.141 127.329 144.66 127.108 144.618 127.431C143.955 128.536 144.175 129.429 143.512 130.619C144.966 130.593 147.031 130.466 147.431 131.843C147.133 130.593 148.664 129.089 148.043 128.655C148.171 128.655 148.196 128.868 148.043 128.902C147.763 128.936 147.584 128.868 147.55 128.655C148.128 128.366 147.703 127.839 147.797 127.066C148.103 127.006 148.485 127.04 148.655 126.573C148.264 126.275 148.222 126.42 147.797 126.573C147.797 126.454 147.694 126.428 147.677 126.326C147.975 125.816 147.779 125.298 147.677 124.856C147.89 124.856 147.992 124.762 148.043 124.609C147.465 123.156 147.95 121.541 147.066 120.444C146.675 120.444 145.969 121.498 145.349 120.937C145.349 121.634 143.717 121.966 143.878 121.677C143.861 121.821 143.682 121.813 143.512 121.804M139.101 121.065C139.39 121.116 140.019 121.32 140.444 121.184V120.572C139.832 120.351 139.518 120.589 139.101 121.065ZM125.866 124.499C125.144 125.153 125.11 126.284 124.762 127.074C124.643 127.346 124.209 127.559 124.149 127.814C124.064 128.171 124.302 128.341 124.149 128.672C124.2 128.562 124.048 128.621 124.031 128.672C123.801 129.352 123.419 130.296 123.172 131.248C123.963 131.554 124.761 132.234 125.866 132.234C127.515 132.225 129.334 131.299 130.643 131.868C130.805 131.868 130.754 131.656 130.89 131.622C131.476 132.055 131.765 131.324 132.36 131.375C133.108 129.684 134.528 128.103 134.197 125.859C134.197 125.612 133.865 125.706 133.95 125.366C134.383 124.686 133.738 124.133 134.197 123.649C133.619 123.555 134.222 122.654 133.703 122.059C134.052 121.566 133.601 120.971 133.95 120.47C133.465 120.623 133.653 120.113 133.338 120.104C133.27 120.283 133.151 120.402 132.972 120.47C132.513 119.968 132.148 120.113 131.621 119.73C131.612 120.521 131.17 119.662 130.89 119.73C130.618 119.798 130.388 120.3 130.031 120.47C129.062 120.912 128.042 120.776 126.844 120.589C126.827 121.345 125.747 121.039 125.739 121.813C126.776 121.711 126.045 122.833 126.478 123.156C126.249 123.173 126.07 123.241 125.985 123.402C126.13 123.419 126.334 123.385 126.351 123.53C126.139 123.946 125.765 123.487 125.62 124.023C125.833 124.057 125.9 124.235 125.866 124.516M117.656 118.515C117.061 119.39 116.058 119.849 115.208 120.478C114.995 121.056 114.136 122.331 114.102 122.807C114.102 123.861 115.003 124.72 114.714 125.502C115.114 126.173 115.853 127.389 116.185 128.324C117.757 129.199 119.432 129.743 121.327 129.794C121.395 129.08 122.144 129.055 122.433 128.57C122.467 127.72 122.475 127.125 123.045 126.607C122.705 125.162 123.724 123.037 123.291 121.583C123.214 122.008 122.781 121.694 122.798 121.337C123.614 120.997 123.971 120.113 123.537 119.127C121.786 119.093 119.9 118.421 117.656 118.515ZM113.125 124.643C112.028 124.499 112.998 122.62 112.513 122.195C112.938 121.838 112.811 121.473 112.641 120.844H113.618C113.491 119.535 115.021 118.532 115.947 118.268C115.709 118.064 115.139 117.792 115.454 117.41C115.224 117.384 115.182 117.546 114.961 117.529C114.621 116.925 114.723 115.888 113.856 115.812C113.652 116.925 113.168 117.01 112.751 117.894C112.488 118.285 112.675 119.22 111.893 119.365C111.655 120.521 111.187 121.345 110.422 122.178C111.298 124.014 112.02 125.366 112.87 127.074C113.287 127.04 113.864 127.168 114.094 126.955C114.128 126.199 113.304 125.748 113.601 125.119C112.998 125.238 113.286 124.66 113.108 124.626M133.814 118.498C134.774 118.829 134.791 118.982 135.531 119.475C136.67 120.24 139.228 119.416 139.696 118.617C139.662 118.685 139.5 118.268 139.577 118.124C139.789 117.716 139.968 117.971 139.943 117.512C139.943 117.495 139.552 116.619 139.943 117.019C139.875 116.118 139.543 115.71 139.943 114.809C139.637 114.826 139.56 115.047 139.449 114.69C139.466 114.46 139.857 114.605 139.815 114.324C139.364 114.239 139.484 113.593 139.203 113.347C138.702 113.551 138.625 112.361 137.979 112.616C136.823 113.5 135.395 112.684 133.695 113.474C133.695 113.262 133.602 113.16 133.449 113.109C132.565 113.321 132.233 114.375 132.471 115.684C132.318 115.684 132.301 115.523 132.106 115.557C132.055 116.475 131.893 116.874 131.987 117.758C132.65 117.673 133.372 118.336 133.822 118.498M140.928 118.991C141.872 118.685 142.008 120.181 142.645 120.58C144.549 119.815 146.981 119.025 147.176 117.274C146.658 116.883 146.759 115.574 146.81 114.698C146.36 114.528 146.147 113.542 146.564 113.228C146.402 113.109 146.198 113.024 146.071 112.862C146.326 112.828 146.105 112.327 146.318 112.25C146.02 112.14 145.859 111.893 145.706 111.638C145.136 111.987 145.076 112.208 144.481 112.616C143.385 112.106 142.747 113.168 141.294 113.109C141.362 113.542 140.86 113.406 140.928 113.848C141.438 114.724 141.218 115.574 141.541 116.543C141.124 116.908 140.877 117.937 141.294 118.132C141.073 118.243 140.877 119.016 140.928 118.991ZM132.599 111.638C133.228 111.859 133.636 112.038 134.435 111.757C134.307 111.222 134.256 111.06 134.681 110.78C134.239 110.814 134.349 110.295 133.95 110.287C133.737 110.975 132.556 110.695 132.599 111.638ZM124.022 116.543C124.974 117.265 125.56 118.353 126.835 118.744C128.093 118.362 129.284 117.92 130.508 117.52C130.831 116.143 130.975 115.31 131.485 114.214C131.281 114.052 131.298 113.67 131.12 113.483C130.763 113.372 130.746 113.372 130.38 113.483C130.525 112.837 129.896 113.109 129.768 112.505C130.576 112.208 131.026 111.562 131.485 110.907C131.17 110.899 131.239 110.499 131.239 110.176C130.057 109.641 128.68 109.301 127.32 108.952C126.156 111.502 124.753 113.806 124.014 116.551M118.378 106.997C117.647 109.097 115.139 110.023 114.952 112.267C114.833 112.395 114.502 112.301 114.587 112.633C114.442 113.245 114.901 113.695 114.587 114.103C116.253 114.783 117.698 116.874 119.61 115.939C120.018 116.262 120.75 116.271 120.835 116.925C121.251 116.891 121.829 117.019 122.058 116.806C122.101 116.526 122.041 116.339 121.939 116.194C123.35 115.319 123.69 113.372 124.515 111.91C124.336 111.893 124.404 111.613 124.396 111.417C125.093 111.094 125.204 110.185 125.501 109.454C123.912 108.102 122.135 106.938 121.336 104.796C120.988 104.898 121.022 104.626 120.724 104.677C119.951 105.45 119.271 106.334 118.395 107.006M125.135 107.133C124.999 106.547 124.787 106.768 124.643 106.275C124.821 106.207 124.948 106.096 125.135 106.028C125.373 106.776 126.062 107.065 126.487 107.618C126.81 107.074 126.385 106.802 125.994 106.64C125.679 105.527 125.093 104.677 124.277 104.065C123.911 104.252 123.784 104.821 123.784 105.042C123.512 104.906 123.172 104.838 122.926 104.677C123.249 105.909 124.396 106.317 125.127 107.125M122.433 103.818C123.062 103.971 123.308 103.317 123.045 102.96C122.628 103.036 122.484 103.376 122.433 103.818ZM138.234 104.43C138.676 104.43 138.769 104.787 138.727 105.289C139.228 105.263 139.246 104.745 139.832 104.796C139.815 105.102 139.603 105.178 139.951 105.289C139.917 104.966 140.206 104.974 140.444 104.923C140.554 105.28 140.537 105.629 140.444 105.782C140.087 105.892 140.07 105.892 139.704 105.782C138.965 106.47 138.396 108.374 139.212 109.216C139.22 110.168 139.059 110.533 139.093 111.298C139.467 111.179 140.546 110.95 140.563 111.545C142.212 111.137 143.326 110.627 144.728 110.193C145.128 109.428 144.184 109.165 144.728 108.604C144.601 108.485 144.481 108.366 144.362 108.238C144.566 108.111 144.499 107.72 144.609 107.499C144.074 107.337 144.277 106.904 144.362 106.394C143.495 105.433 144.014 103.062 142.399 102.348C141.099 102.543 139.449 102.841 137.868 102.348C138.004 103.181 138.472 103.699 138.234 104.43ZM135.539 104.184C135.845 103.844 135.157 103.75 135.047 103.453C135.251 102.858 135.251 102.781 135.293 101.982C134.273 101.753 132.683 101.251 131.374 101.736C131.629 102.475 131.638 104.558 130.516 105.17C130.796 105.969 129.207 106.938 128.552 107.618C129.564 107.983 131.493 108.833 132.471 109.207C132.607 109.683 132.76 109.777 132.59 110.312C133.363 109.947 134.018 110.185 134.791 109.7C134.825 110.491 135.701 110.635 135.285 111.536C138.243 112.089 137.682 109.437 137.486 106.632C137.07 106.351 136.882 105.102 137.239 104.796C136.806 104.583 136.942 104.881 136.5 104.915C136.653 104.43 136.143 104.617 136.135 104.303C136.279 104.039 136.508 103.852 136.627 103.563C136.313 103.555 136.449 103.087 136.135 103.07C135.973 103.436 136.007 103.691 136.253 103.929C136.032 104.039 135.939 104.269 135.514 104.175M135.879 100.622C136.1 101.03 137.018 101.124 137.35 100.75C137.137 100.699 137.375 100.588 137.35 100.384C136.891 100.308 136.168 100.223 135.879 100.631M124.974 102.348C125.391 102.144 124.991 102.025 124.974 101.617C125.79 101.413 126.836 100.478 128.034 100.265C128.323 100.52 127.864 100.75 128.153 100.996C127.873 100.962 127.694 101.03 127.66 101.243C127.821 101.54 127.388 101.795 127.779 102.22C127.396 102.084 127.482 102.416 127.286 102.467C127.108 102.399 126.98 102.288 126.793 102.22C126.334 102.62 125.62 102.858 124.957 103.325C124.711 104.643 126.02 104.6 125.816 105.527C126.776 105.552 126.427 106.87 127.779 106.504C127.592 105.552 129.615 104.66 129.131 103.81C129.479 103.784 129.284 103.232 129.743 103.317C129.981 102.195 129.368 101.829 129.989 100.869C129.844 100.486 129.275 100.52 129.249 100.01C128.544 100.078 127.533 99.5684 126.436 99.6449C125.705 100.223 125.11 100.928 124.719 101.846C125.297 101.719 124.515 102.263 124.966 102.339M139.058 99.3985C139.475 99.8575 140.036 99.305 139.789 98.9055C139.738 99.2625 139.211 99.1435 139.058 99.3985ZM130.363 99.764C130.593 100.146 131.001 100.35 131.468 100.503C131.655 99.747 133.109 100.265 133.551 99.764C132.25 99.6875 131.026 98.115 130.363 99.764ZM137.469 94.987C137.452 95.174 137.511 95.4375 137.35 95.48C136.678 95.5395 136.347 95.259 135.633 95.361C135.454 95.99 136.007 95.8879 135.879 96.4574C137.29 96.6019 138.795 96.4915 139.186 95.1145C139.161 94.9785 139.05 94.919 138.939 94.868C138.548 95.2845 137.945 95.0125 137.469 94.987ZM133.797 92.2925C133.976 92.7515 133.466 92.522 133.551 92.9045C133.882 92.811 133.797 93.151 134.043 93.151C134.315 92.301 133.661 91.6805 133.066 91.927C133.474 92.0205 133.602 92.301 133.797 92.2925ZM137.231 91.927C137.443 92.2925 137.265 93.0405 137.724 93.151C137.903 92.998 137.911 92.6835 138.089 92.539C137.528 92.6155 137.886 91.7655 137.597 91.5615C137.682 91.893 137.341 91.7995 137.231 91.927ZM133.559 88.374C134.103 88.5695 134.281 89.122 134.783 89.3515C134.808 88.918 134.027 87.5155 133.559 88.374ZM141.889 83.8435C142.042 84.8805 141.328 84.804 141.77 85.5605C140.954 86.1385 140.818 86.9885 140.418 87.762C140.639 87.8725 140.733 88.102 141.158 88.0085C142.509 86.861 142.127 85.2205 142.51 83.7245C142.229 83.682 142.042 83.7415 141.897 83.8435M147.899 142.4C147.788 142.493 147.618 142.536 147.406 142.519C147.754 143.955 146.377 144.644 146.674 146.437C146.402 146.573 146.266 146.845 145.935 146.93C146.19 147.457 145.451 148.324 144.83 148.52C144.881 148.673 144.983 148.775 145.195 148.766C144.413 150.636 143.377 152.209 143.113 154.036C142.458 154.818 141.77 155.558 141.524 156.731C140.801 156.714 140.767 157.717 140.053 157.343C139.79 157.36 139.789 157.649 139.806 157.955C139.458 157.768 139.237 158.218 138.701 157.955C138.429 158.32 138.446 158.796 138.089 159.306C137.486 159.213 137.154 158.856 136.372 158.941C136.202 159.298 135.761 159.383 135.268 159.434C135.99 160.445 136.475 162.239 134.409 162.128C133.313 161.261 132.802 159.816 131.587 159.068C131.357 159.459 131.417 160.122 130.728 160.046C131.068 160.471 130.618 160.93 130.482 161.27C129.488 161.516 129.351 162.179 129.377 163.233C128.663 163.446 128.603 163.599 127.906 163.726C127.473 162.519 126.436 161.287 126.436 160.054C126.062 160.139 126.198 160.139 125.824 160.054C125.765 160.318 126.002 160.284 126.189 160.301C126.096 160.819 125.306 161.159 124.966 161.032C124.447 162.332 123.223 162.57 122.271 162.621C122.084 160.819 121.659 159.629 122.39 157.963C122.296 157.649 121.6 157.938 121.659 157.47C121.192 157.946 120.053 157.411 120.308 156.858C119.619 156.918 119.517 156.935 118.964 156.739C118.42 155.184 116.525 155.745 116.143 154.045C115.769 154.138 115.786 153.832 115.403 153.926C115.31 153.815 115.276 153.645 115.284 153.433C114.341 152.549 112.42 153.152 111.485 151.962H110.872C111.008 150.764 110.337 150.381 110.26 149.387C109.75 149.055 109.155 148.239 109.402 147.551C109.096 147.755 108.79 147.194 108.671 146.565C109.096 146.667 109.189 146.429 109.402 146.318C109.13 146.378 108.628 145.842 108.424 145.953C108.144 145.698 108.161 145.324 108.543 145.222C108.543 144.856 107.965 145.069 107.804 144.856C107.889 143.862 107.447 143.666 107.311 143.139C107.796 142.034 109.47 143.071 109.887 142.034C109.547 142.179 109.189 141.941 108.535 142.034C108.475 141.261 107.09 140.793 106.818 139.833C107.141 139.833 107.133 139.493 107.311 139.34C106.827 137.478 107.77 136.467 107.192 134.809C107.319 134.886 107.32 135.09 107.558 135.056C107.762 134.886 107.507 134.138 107.311 133.951C107.201 134.044 107.031 134.087 106.818 134.07C106.019 133.22 106.266 131.953 105.96 130.763C106.657 130.661 107.115 129.743 107.795 130.024C107.625 129.42 107.957 128.528 107.183 128.307C107.719 127.848 106.827 127.049 107.43 126.709C107.32 126.377 107.005 126.93 106.818 126.59C106.47 125.145 108.153 124.762 108.901 124.014C108.561 123.3 107.796 122.561 108.901 122.178C108.867 122.025 108.654 122.051 108.654 122.178C108.645 121.337 110.447 120.3 110.124 119.365C110.354 118.906 110.439 118.285 111.102 118.26C110.507 117.903 111.467 117.07 111.221 116.67C111.476 116.313 112.063 116.288 112.326 115.931C111.689 115.361 110.813 116.5 110.609 115.2C110.32 115.378 110.38 115.455 109.997 115.319C109.853 115.047 109.683 114.817 109.751 114.341C110.312 114.086 110.558 113.517 111.468 113.61C111.935 114.562 112.47 114.877 113.303 114.103C112.751 112.956 113.864 112.233 113.55 110.669C116.652 108.485 117.723 104.073 121.633 102.951C121.404 102.467 121.965 102.186 122.492 102.093C122.22 101.838 122.551 101.744 122.492 101.353C122.789 101.404 122.755 101.132 123.104 101.234C123.962 99.6365 125.918 98.506 127.635 98.1744C126.98 97.027 125.348 97.809 124.693 97.197C124.549 97.3755 124.388 97.5455 124.201 97.69C123.98 97.503 123.589 97.486 123.708 96.9504C125.561 97.027 126.81 96.9505 128.238 97.5625C128.799 97.0354 129.402 96.4235 130.439 96.585C130.499 97.2565 130.108 97.4775 129.827 97.809C130.592 98.319 131.731 97.6815 132.768 98.1744C132.139 96.5765 131.196 95.956 129.708 95.3525C129.64 94.97 129.131 95.0295 129.097 94.613C126.419 93.6865 124.591 92.403 121.744 92.165C121.208 92.25 120.792 92.3435 120.274 92.046C119.883 92.25 119.959 92.454 120.027 92.9045C119.364 92.2755 119.287 91.706 118.31 91.315C119.33 90.2865 121.617 91.2725 122.968 90.5755C123.844 91.077 125.722 90.4905 126.887 91.1875C128.799 90.907 130.677 91.638 132.641 91.672C132.53 91.332 132.182 91.23 132.148 90.8135C131.927 91.2555 131.043 90.754 130.924 91.179C130.38 90.907 129.87 90.601 129.7 89.955C128.765 89.819 128.459 89.802 127.864 89.343C127.983 89.2155 128.102 89.0965 128.229 88.9775C127.779 87.8045 125.493 87.0395 126.878 85.79C126.054 84.7105 126.096 83.5035 125.408 82.356C125.663 82.2795 125.866 82.169 125.773 81.744C125.679 81.6165 125.348 81.7865 125.161 81.4975C125.195 80.826 125.433 80.129 125.042 79.6615C125.492 79.092 126.011 78.5905 126.878 78.4375C128.289 79.942 128.731 81.6845 129.572 83.7075C131.026 84.702 131.128 87.048 132.76 87.8725C132.445 86.487 131.868 84.5405 132.514 83.0955C132.352 82.0415 132.658 79.4745 133.491 78.803C132.743 77.324 133.746 75.76 134.468 74.2725C135.004 74.4425 135.149 73.482 135.693 73.295C135.676 72.904 135.404 72.394 135.693 72.071C135.803 72.1985 136.143 72.105 136.058 72.4365C136.262 71.986 136.831 71.9095 136.916 71.3315C137.528 71.238 137.639 71.2635 138.022 71.578C138.481 72.6065 137.376 73.6605 137.163 75.131C137.121 75.4285 137.325 75.7005 137.282 75.9895C136.968 78.072 135.939 80.5965 136.177 82.968C135.599 84.0305 135.531 86.028 136.543 87.014C138.056 83.614 139.033 80.0355 140.708 76.6015C141.447 74.485 142.11 72.2835 142.909 70.2265C142.867 69.249 143.173 67.6595 143.649 66.7925C144.465 66.835 144.473 66.07 145.238 66.053C145.281 66.376 145.561 66.4695 145.85 66.546C145.867 68.246 145.569 70.235 145.238 71.816H144.872C144.974 72.683 144.753 74.0005 144.133 74.145C144.294 74.6295 144.328 74.519 144.379 75.0035C144.269 75.097 144.099 75.1395 143.887 75.131C144.04 75.6325 144.133 76.7545 143.521 77.0945C143.623 77.46 143.614 76.7205 144.014 76.9755C143.359 77.7065 143.716 78.8965 143.402 79.7975C143.3 79.7295 143.207 79.67 143.037 79.67C143.368 80.231 142.722 80.3585 142.918 81.1405C142.807 81.047 142.637 81.0045 142.424 81.0215C143.019 81.6675 142.161 81.8545 142.424 82.8575C143.317 82.237 144.014 81.421 144.141 80.0355C145.663 78.8965 145.544 76.3465 147.695 75.743C147.797 75.9215 148 76.0065 148.306 75.9895C148.281 76.4825 148.315 76.814 148.672 77.2135C148.383 77.2135 148.315 77.426 147.941 77.341C148.136 78.208 147.55 80.435 146.351 81.2595C146.402 81.9055 146.199 82.968 145.493 83.223C145.808 84.5065 144.499 85.1355 144.635 86.283C148.086 85.195 150.661 82.594 153.33 81.1405C153.832 80.129 154.494 80.435 155.293 80.044C155.667 80.656 155.293 81.0555 155.174 81.761C154.885 81.795 154.664 81.999 154.435 81.761C154.86 82.4665 153.814 82.3305 153.823 82.985C153.712 82.934 153.602 82.8745 153.576 82.7385C152.896 83.257 152.421 84.583 151.613 84.5745C150.551 86.453 148.307 87.15 146.343 88.1275C146.139 88.374 146.352 88.2805 146.343 88.6205C145.706 88.68 145.306 89.6235 144.753 89.36C144.966 89.768 144.141 90.5075 143.41 90.7115C143.767 91.0685 143.172 91.094 143.283 91.57C141.923 91.3405 141.736 93.168 140.954 93.899C142.509 93.61 143.529 91.74 145.612 91.57C148.408 90.21 150.984 90.482 154.308 90.5925C154.673 91.349 155.71 90.992 155.897 91.6975C156.688 91.3405 157.129 92.114 157.852 92.1905C157.971 92.7175 157.248 92.403 157.24 92.8025C153.661 92.267 150.032 93.678 146.947 94.154C145.459 96.092 142.084 96.2195 142.662 99.1775C142.475 99.3135 142.365 99.526 142.17 99.6705C142.255 99.9425 142.535 100.282 142.289 100.529C143.3 100.903 144.056 101.532 144.983 101.999C144.855 102.118 144.941 102.45 144.618 102.365C145.196 103.699 146.776 105.306 145.722 107.142C145.909 107.329 145.944 107.66 146.216 107.754C145.825 108.468 146.607 109.182 146.097 109.717C146.471 109.998 147.253 110.389 146.955 110.941C147.338 111.171 148.06 112.089 147.567 112.412C148.74 113.95 148.689 116.024 148.06 117.92C148.111 118.107 148.222 117.869 148.426 117.92C148.366 118.379 148.332 118.481 148.298 119.144C149.114 119.824 149.004 121.277 149.522 121.966C149.369 123.164 149.785 123.81 149.887 124.66H149.522C149.956 125.102 149.122 125.995 149.887 126.131C149.607 126.216 149.709 126.683 149.395 126.743C149.522 126.989 149.938 126.938 149.887 127.355C149.556 127.27 149.65 127.61 149.522 127.72C149.437 129.199 149.377 131.146 149.029 132.132C149.029 132.14 148.834 131.979 148.783 132.004C148.885 132.446 149.386 132.744 148.901 133.109C149.046 133.126 149.122 133.084 149.148 132.99C149.751 134.996 148.281 139.501 147.797 142.425" fill="#6C9C30"/>
<path d="M132.709 103.657C133.287 103.461 133.814 103.215 134.426 103.045C135.506 104.294 133.525 105.28 132.462 105.246C132.114 104.855 132.887 104.099 132.709 103.657Z" fill="#6C9C30"/>
<path d="M113.355 134.282C113.729 135.379 113.584 135.889 113.72 136.977C111.417 137.648 111.068 134.554 113.355 134.282Z" fill="#6C9C30"/>
<path d="M82.4826 156.944C83.8256 156.782 84.6415 157.675 85.4235 157.675C84.871 158.618 83.358 159.179 82.236 158.533C82.2275 157.913 82.1851 157.25 82.4826 156.944Z" fill="#6C9C30"/>
<path d="M97.4183 65.0018C101.133 62.2963 102.024 58.1183 102.631 56.3225C113.708 58.4531 129.532 52.9207 133.812 46.2738C138.092 39.6269 143.054 23.4517 124.196 13.0768C105.339 2.70184 77.5153 13.8913 63.6403 17.8577C49.7652 21.8242 50.5575 40.0555 59.3036 47.2669C67.4515 53.985 85.6403 56.8912 94.6353 56.5902C96.733 59.9216 97.1772 62.8886 97.4183 65.0018Z" fill="#87BE23"/>
<path d="M60.687 40.8198C60.7687 40.714 60.8498 40.4852 60.9305 40.1333C61.7347 35.8763 62.148 32.0486 62.1703 28.65C62.181 28.3687 62.3327 28.1982 62.6254 28.1385C62.9539 28.231 63.0952 28.418 63.0494 28.6994C63.0482 31.4885 62.6412 35.4276 61.8285 40.5166C61.8059 40.7394 61.7538 40.9271 61.6724 41.0797C61.5329 41.3732 61.3517 41.5028 61.1289 41.4685C60.8005 41.3994 60.6532 41.1832 60.687 40.8198ZM71.5172 27.4018C71.656 30.0263 72.0405 32.5209 72.6705 34.8857C73.1707 37.005 73.9041 38.8069 74.8707 40.2915C74.965 40.4318 75.047 40.4432 75.1169 40.3257C75.4979 38.8243 75.7632 37.6924 75.9127 36.9301C75.9824 36.7775 76.0466 36.707 76.1052 36.7185C76.1873 36.7416 76.2229 36.8411 76.2118 37.0169C76.1792 37.685 76.0892 38.6814 75.9419 40.0062C75.8735 40.5104 75.8053 41.0907 75.7375 41.7472C75.5164 42.1582 75.2177 42.1945 74.8414 41.8561C73.5218 39.9626 72.5054 37.7106 71.7924 35.1C71.1507 32.7587 70.7426 30.1996 70.5681 27.4229C70.591 27.2939 70.5206 27.2649 70.3568 27.3358L64.1064 29.3107C63.7435 29.4175 63.5029 29.3071 63.3844 28.9794C63.278 28.7103 63.371 28.5283 63.6636 28.4334C64.7175 28.2185 66.0345 27.8502 67.6146 27.3286C69.2182 26.8304 70.2364 26.4867 70.6693 26.2975C70.7628 26.2269 70.8562 26.1562 70.9497 26.0855C71.055 26.0266 71.1487 26.0145 71.2308 26.0493C71.4771 26.0953 71.63 26.2353 71.6895 26.4695C71.7251 26.5982 71.7198 26.733 71.6734 26.8738C71.5568 27.0383 71.5048 27.2143 71.5172 27.4018ZM68.5068 35.4991L68.5242 35.4463C68.6641 35.2583 68.769 35.1114 68.8389 35.0057C69.0835 34.6181 69.2407 34.3421 69.3104 34.1777C69.4385 33.978 69.3679 33.8904 69.0985 33.9149C68.8055 33.916 68.2844 34.0117 67.5351 34.202C67.5254 34.7411 67.5099 35.292 67.4886 35.8546C67.8514 35.7243 68.1908 35.6058 68.5068 35.4991ZM67.5494 33.3406C68.4509 33.1263 69.1712 33.0005 69.7101 32.9633C70.1907 33.0084 70.5312 33.1653 70.7314 33.4341C70.8025 33.633 70.7623 33.8441 70.6108 34.0674L69.7186 35.2133C69.9063 35.2712 70.0298 35.3703 70.0889 35.5107C70.1248 35.7215 70.0962 35.8916 70.0029 36.0208C69.9563 36.0913 69.8862 36.1385 69.7925 36.1623C69.5466 36.1983 69.2713 36.2463 68.9669 36.306C68.5571 36.4013 68.0538 36.5614 67.457 36.7863C67.4464 37.0911 67.4358 37.3899 67.4252 37.6829C67.4264 37.9993 67.4334 38.304 67.4462 38.5969C67.4465 38.6555 67.4525 38.7141 67.4645 38.7726C68.2024 38.6761 68.6591 38.5806 68.8345 38.4862C69.0796 38.2158 69.3077 38.1094 69.5188 38.1672C69.765 38.1897 70.1646 38.4812 70.7175 39.0416C71.082 39.3683 71.4524 39.6951 71.8286 40.0218C71.9347 40.1972 71.9412 40.3553 71.848 40.4963C71.7196 40.6257 71.5087 40.6324 71.2152 40.5163C70.0287 39.7356 69.3886 39.363 69.295 39.3985C68.2057 39.555 67.0581 39.782 65.8522 40.0795C65.3956 40.175 64.9799 40.2762 64.6053 40.3831C64.3124 40.3842 64.1361 40.2501 64.0765 39.9808C64.0404 39.7348 64.1335 39.5763 64.3559 39.5051C64.5897 39.3636 65.3039 39.1734 66.4983 38.9345C66.4972 38.6533 66.5183 38.0379 66.5616 37.0885C66.3393 37.1714 66.117 37.2602 65.8947 37.3547C65.8244 37.3784 65.7659 37.3904 65.719 37.3906C65.7313 37.5429 65.7025 37.6836 65.6327 37.8128C65.4576 38.0009 65.2586 38.0427 65.0355 37.9381C64.7299 37.6931 64.4532 37.3368 64.2053 36.8689C63.7687 36.0737 63.5015 35.1314 63.4036 34.0419C63.4146 33.8661 63.4786 33.731 63.5954 33.6369C63.7475 33.5542 63.9115 33.5595 64.0877 33.6526C64.1698 33.6874 64.2287 33.7575 64.2642 33.8628C64.2883 34.0151 64.3122 34.1498 64.3361 34.2669C64.4062 34.2197 64.4706 34.1902 64.5291 34.1782C65.2431 33.9412 65.9572 33.7392 66.6714 33.5725C66.681 33.0217 66.6797 32.6877 66.6676 32.5705C66.6554 32.4534 66.614 32.3539 66.5434 32.2722C66.5777 32.0494 66.7531 31.9315 67.0694 31.9186C67.3861 31.9877 67.5509 32.1981 67.564 32.5496C67.565 32.8074 67.5601 33.0711 67.5494 33.3406ZM66.6571 34.4515C66.025 34.6296 65.3695 34.843 64.6908 35.0917C64.6322 35.1036 64.5854 35.1155 64.5503 35.1274C64.7049 35.7362 64.9119 36.2276 65.1711 36.6016C65.2882 36.566 65.4228 36.5304 65.575 36.4946C65.8208 36.4234 66.1602 36.3108 66.5933 36.1568C66.604 35.9106 66.6206 35.6528 66.6431 35.3832C66.6535 35.0315 66.6581 34.721 66.6571 34.4515ZM69.1368 30.1002C69.4182 30.1343 69.6002 30.245 69.683 30.4322C69.7189 30.643 69.6903 30.813 69.597 30.9423C69.5504 31.0127 69.4744 31.0541 69.3689 31.0662C69.0995 31.1023 68.8009 31.1503 68.473 31.2102C67.7119 31.3771 66.5998 31.686 65.1366 32.1369C64.8674 32.2082 64.6273 32.2443 64.4163 32.2451C64.1818 32.1991 64.0583 32.0882 64.0459 31.9125C64.0102 31.7603 64.0273 31.6372 64.0973 31.5431C64.1321 31.4493 64.3779 31.3663 64.8346 31.2943C65.1508 31.2228 65.6424 31.0861 66.3096 30.8844C67.1291 30.6469 67.9017 30.4272 68.6275 30.2252C68.7679 30.1661 68.9376 30.1244 69.1368 30.1002ZM90.532 30.7576C89.9695 30.7714 89.5478 30.8082 89.2668 30.8679C88.1076 31.1183 87.0244 31.3334 86.0172 31.513C85.9535 33.2476 85.8728 35.1522 85.7752 37.2268C85.7658 37.8362 85.7797 38.428 85.817 39.0021C85.8293 39.1544 85.8475 39.3066 85.8715 39.4589C86.3284 39.4103 86.7911 39.3675 87.2597 39.3306C89.7198 39.1103 91.7177 39.05 93.2532 39.1497C93.6283 39.1834 93.8574 39.3291 93.9404 39.5866C93.9655 40.0318 93.7614 40.2845 93.328 40.3447C92.7409 40.0188 90.8129 39.9675 87.5442 40.1908C83.4203 40.4877 80.3457 40.9036 78.3203 41.4386C78.0627 41.4748 77.8982 41.3641 77.8269 41.1065C77.7673 40.8489 77.872 40.6493 78.141 40.5077C78.7376 40.2124 80.9805 39.8934 84.8699 39.5506C84.8581 39.5272 84.8463 39.5038 84.8345 39.4804C84.7979 39.1055 84.8947 36.8083 85.1248 32.5886C85.1353 32.2722 85.1459 31.9674 85.1565 31.6744C83.9036 31.937 82.7501 32.1581 81.6961 32.3379C81.3565 32.3978 81.0286 32.4693 80.7125 32.5526C80.4431 32.5887 80.2846 32.4956 80.2369 32.2731C80.2005 31.9568 80.3051 31.7162 80.5505 31.5512C82.0848 31.311 83.6307 31.0415 85.1881 30.7427C85.251 28.7619 85.2642 27.6193 85.2279 27.3147C85.2157 27.1976 85.1744 27.0982 85.1037 27.0164C85.138 26.7936 85.3134 26.6699 85.6297 26.6453C85.9464 26.7261 86.1113 26.9423 86.1243 27.2938C86.1164 28.3016 86.0913 29.3974 86.0489 30.5812C87.3955 30.3183 88.748 30.0436 90.1063 29.7572C90.446 29.7091 90.6691 29.8196 90.7756 30.0887C90.8119 30.405 90.7307 30.6279 90.532 30.7576ZM101.555 31.2081C101.18 31.2447 100.706 31.3402 100.133 31.4947C100.09 32.6433 100.071 33.8915 100.076 35.2391C100.135 35.2037 100.187 35.1742 100.234 35.1506C100.55 34.9268 100.737 34.885 100.796 35.0254C100.902 35.1657 100.798 35.4122 100.483 35.7649C100.331 35.8475 100.196 35.9242 100.079 35.995C100.083 37.0379 100.105 38.1336 100.144 39.2818C100.146 39.8092 100.201 40.2895 100.308 40.7226C100.344 41.0506 100.263 41.2795 100.065 41.4091C99.6545 41.4458 99.3612 41.359 99.1846 41.1488C98.9844 40.88 98.7664 40.5703 98.5307 40.2196C97.8835 39.5189 97.3306 38.9526 96.8719 38.5208C96.4838 38.1355 96.26 37.8493 96.2007 37.662C96.1528 37.3926 96.2867 37.1519 96.6023 36.9398C97.6318 36.4788 98.515 36.0595 99.2518 35.6817C99.2347 34.252 99.2415 32.9337 99.272 31.7265C98.6517 31.9281 97.9612 32.1592 97.2004 32.4199C96.7439 32.5622 96.4392 32.54 96.2861 32.353C96.1097 32.1779 96.0796 31.9788 96.196 31.7557L97.6599 28.4279C97.7529 28.2283 97.9344 28.169 98.2042 28.25C98.4743 28.4131 98.5688 28.6061 98.4876 28.8291C98.1507 29.5921 97.802 30.361 97.4417 31.1358C97.3604 31.347 97.4134 31.4054 97.6005 31.3109C98.1155 31.1332 98.6832 30.9553 99.3036 30.7772C99.3567 29.3121 99.4397 28.0403 99.5528 26.9617C99.6099 26.5514 99.8083 26.3338 100.148 26.3091C100.465 26.3782 100.577 26.5946 100.484 26.9582C100.336 28.0135 100.229 29.2092 100.164 30.5454C100.55 30.4502 100.948 30.3432 101.358 30.2245C101.487 30.1888 101.581 30.1826 101.639 30.2058C101.874 30.287 101.998 30.4681 102.011 30.7493C101.965 31.0425 101.813 31.1954 101.555 31.2081ZM97.2206 37.746C97.7026 38.1661 98.2788 38.6737 98.949 39.2688C99.0901 39.3972 99.1958 39.4495 99.266 39.4258C99.3128 39.4139 99.3301 39.3259 99.3177 39.1619C99.2907 38.2128 99.2697 37.3164 99.2548 36.4727C98.5649 36.8503 97.9158 37.1985 97.3076 37.5172C97.1673 37.6115 97.1383 37.6877 97.2206 37.746ZM108.653 30.2144C108.934 30.2485 109.117 30.3592 109.199 30.5464C109.235 30.7572 109.207 30.9272 109.113 31.0565C109.055 31.127 108.973 31.1683 108.868 31.1804C108.563 31.2167 108.223 31.259 107.849 31.3073C107.017 31.4628 105.794 31.7546 104.178 32.1826C103.885 32.2423 103.622 32.2725 103.387 32.2734C103.153 32.2274 103.029 32.1166 103.017 31.9408C102.981 31.7886 102.998 31.6655 103.068 31.5715C103.103 31.4776 103.372 31.4004 103.876 31.3399C104.227 31.2683 104.778 31.1373 105.527 30.947C105.597 30.935 105.656 30.923 105.703 30.9112C105.758 30.1727 105.814 29.44 105.87 28.7132C105.46 28.8085 105.033 28.9098 104.588 29.0169C103.745 29.2193 102.99 29.439 102.323 29.6759C102.218 29.6997 102.118 29.6942 102.024 29.6594C101.825 29.5899 101.707 29.4731 101.671 29.3092C101.647 29.1804 101.67 29.069 101.74 28.975C101.787 28.8576 102.635 28.5848 104.286 28.1567C104.813 28.0141 105.369 27.8772 105.954 27.7461C105.954 27.6524 105.959 27.5645 105.971 27.4824C106.027 26.7322 106.037 26.2458 106.001 26.0233C105.977 25.9179 106.029 25.8357 106.158 25.7766C106.287 25.7527 106.398 25.764 106.492 25.8105C106.738 25.8799 106.909 26.0726 107.004 26.3886L106.849 27.3736C106.838 27.4439 106.832 27.5084 106.833 27.567C107.816 27.3641 108.87 27.1784 109.995 27.0101C110.229 26.9624 110.375 26.9442 110.434 26.9557C110.715 27.0367 110.833 27.2355 110.788 27.552C110.73 27.7866 110.572 27.9396 110.315 28.0109C109.483 28.0257 108.288 28.2002 106.731 28.5342C106.64 29.4135 106.584 30.1344 106.563 30.697C107.102 30.566 107.611 30.4352 108.091 30.3045C108.267 30.2569 108.454 30.2269 108.653 30.2144ZM104.081 38.933C104.092 38.8743 104.145 38.8273 104.238 38.7917C105.268 38.4949 106.292 38.0633 107.31 37.4969C107.415 37.4496 107.526 37.3906 107.643 37.3199C107.63 37.0152 107.623 36.7281 107.622 36.4586C107.608 35.943 107.601 35.4509 107.599 34.9821C106.861 35.149 106.036 35.3572 105.123 35.6067C104.327 35.8324 103.607 36.0695 102.963 36.318C102.846 36.3419 102.741 36.3365 102.647 36.3017C102.412 36.2205 102.277 36.0921 102.241 35.9165C102.205 35.776 102.234 35.6587 102.328 35.5646C102.374 35.4472 103.199 35.1687 104.803 34.729C105.658 34.4797 106.594 34.2476 107.613 34.0329C107.622 33.4469 107.644 32.896 107.677 32.3803C107.653 32.1694 107.635 32.0289 107.623 31.9586C107.739 31.8058 107.903 31.7056 108.114 31.6579C108.383 31.7038 108.566 31.8671 108.66 32.148C108.591 32.2655 108.545 32.5645 108.523 33.045C108.501 33.3264 108.49 33.5959 108.491 33.8538C109.065 33.7461 109.668 33.6384 110.3 33.5305C110.535 33.4827 110.681 33.4646 110.74 33.4761C111.01 33.5571 111.127 33.7559 111.094 34.0724C111.036 34.307 110.878 34.46 110.621 34.5312C110.07 34.5333 109.349 34.6181 108.459 34.7855C108.438 35.2895 108.434 35.8052 108.448 36.3324C108.476 37.598 108.551 38.9278 108.674 40.3219C108.71 40.5444 108.769 40.761 108.852 40.9716C108.876 41.2176 108.854 41.3934 108.784 41.4992C108.679 41.6519 108.538 41.7345 108.363 41.7469C107.107 41.2711 105.897 40.5667 104.734 39.6336C104.252 39.3425 104.034 39.1089 104.081 38.933ZM107.663 37.9175C107.067 38.3885 106.266 38.8485 105.26 39.2977C106.141 39.8334 106.992 40.211 107.813 40.4306C107.751 39.5402 107.701 38.7025 107.663 37.9175ZM126.288 26.5969C126.534 26.678 126.641 26.8651 126.607 27.1582C126.549 27.3694 126.403 27.5106 126.169 27.5818C125.302 27.5968 124.089 27.7244 122.531 27.9647C122.696 28.0461 122.796 28.1746 122.832 28.3502C122.809 28.4675 122.751 28.5849 122.657 28.7025C122.483 28.9961 122.249 29.29 121.957 29.584C122.743 29.7217 123.5 29.8887 124.227 30.0852C124.45 30.2484 124.516 30.4826 124.423 30.7876C124.307 31.0224 124.155 31.0933 123.967 31.0003C123.603 30.8727 123.157 30.7338 122.629 30.5835C122.16 30.4798 121.691 30.3936 121.222 30.3251C120.72 30.7723 120.124 31.2668 119.435 31.8084C119.283 31.9262 119.13 31.9385 118.978 31.8453C118.743 31.6939 118.701 31.4772 118.852 31.1954C119.343 30.8654 119.787 30.5532 120.185 30.2587C120.22 30.2234 120.255 30.194 120.29 30.1704C119.75 30.1021 119.211 30.0515 118.672 30.0183C118.473 29.9605 118.355 29.8555 118.319 29.7033C118.295 29.4807 118.388 29.328 118.599 29.2452C118.903 29.1854 119.366 29.1895 119.987 29.2575C120.363 29.303 120.738 29.3543 121.113 29.4114C121.522 28.9997 121.854 28.5825 122.11 28.1596C122.133 28.0892 122.157 28.0481 122.18 28.0363C121.372 28.18 120.494 28.3415 119.545 28.5209C118.585 28.712 117.719 28.9204 116.946 29.146C116.829 29.1698 116.718 29.1644 116.612 29.1296C116.389 29.0485 116.26 28.92 116.224 28.7444C116.188 28.6039 116.217 28.4866 116.31 28.3925C116.369 28.2868 117.346 28.0487 119.243 27.6783C119.922 27.5468 120.654 27.4151 121.439 27.2832C121.369 27.2601 121.31 27.231 121.263 27.196C121.228 27.1844 121.181 27.1436 121.122 27.0735C120.827 26.7231 120.539 26.4605 120.257 26.2858C120.116 26.005 120.109 25.7765 120.237 25.6003C120.331 25.5062 120.454 25.4647 120.606 25.4758C120.688 25.4872 120.8 25.5571 120.941 25.6855C121.293 25.942 121.564 26.2925 121.753 26.7371C121.777 26.7839 121.795 26.8483 121.807 26.9303C121.819 27.0826 121.778 27.1823 121.685 27.2296C122.938 27.0256 124.303 26.833 125.778 26.6516C126.048 26.6037 126.218 26.5855 126.288 26.5969ZM127.06 30.9534C127.318 31.0345 127.431 31.2274 127.397 31.5322C127.339 31.7551 127.187 31.9022 126.941 31.9734C125.383 31.991 122.853 32.3463 119.351 33.0392C118.918 33.1229 118.514 33.2123 118.139 33.3075C118.151 33.3426 118.157 33.3836 118.158 33.4305C118.139 34.6727 117.134 37.0613 115.144 40.5962C115.062 40.7606 114.969 40.9191 114.864 41.0719C114.677 41.2132 114.496 41.2373 114.319 41.1443C114.167 41.0511 114.102 40.8873 114.124 40.6528C114.136 40.5707 114.182 40.4651 114.264 40.3359C114.38 40.1245 114.462 40.0011 114.508 39.9658C114.52 39.954 114.543 39.9422 114.579 39.9304C116.022 37.3585 116.911 35.3629 117.245 33.9437C117.28 33.7795 117.297 33.6329 117.296 33.504C116.957 33.5874 116.647 33.6706 116.366 33.7537C116.26 33.7775 116.161 33.772 116.067 33.7372C115.867 33.6676 115.75 33.5509 115.714 33.387C115.69 33.2582 115.713 33.1467 115.783 33.0527C115.841 32.9353 116.942 32.6558 119.085 32.2141C121.11 31.7728 123.576 31.365 126.48 30.9908C126.785 30.9545 126.978 30.942 127.06 30.9534ZM126.039 35.1057C125.336 35.167 124.393 35.3346 123.211 35.6086C123.189 36.1126 123.156 36.6342 123.111 37.1735C123.544 37.0546 123.948 36.9418 124.323 36.8349C124.498 36.7756 124.692 36.7339 124.902 36.7097C125.184 36.7438 125.366 36.8544 125.449 37.0416C125.485 37.2524 125.456 37.4224 125.363 37.5517C125.304 37.6222 125.217 37.6694 125.099 37.6933C124.795 37.7296 124.461 37.7777 124.098 37.8377C123.782 37.8975 123.431 37.9809 123.044 38.0878C123.033 38.2285 123.022 38.3633 123.011 38.4922C123.012 38.7969 123.025 39.0957 123.049 39.3886C123.062 39.5526 123.08 39.7166 123.104 39.8805C123.42 39.8442 123.748 39.8137 124.088 39.7889C125.482 39.6548 126.941 39.5613 128.464 39.5087C128.686 39.4961 128.862 39.5131 128.991 39.5594C129.167 39.6525 129.262 39.8162 129.274 40.0506C129.24 40.3671 129.124 40.555 128.925 40.6144C128.491 40.5574 128.093 40.5238 127.729 40.5134C127.178 40.4804 126.587 40.4885 125.954 40.5377C123.494 40.6642 120.794 40.9909 117.854 41.5176C117.538 41.554 117.379 41.4315 117.378 41.1503C117.365 40.8573 117.476 40.6636 117.71 40.5689C118.951 40.365 120.421 40.1661 122.12 39.9722C122.096 39.9371 122.079 39.902 122.067 39.8669C122.043 39.7381 122.07 39.2282 122.149 38.3373C121.587 38.4917 120.978 38.6698 120.323 38.8715C120.018 38.943 119.743 38.9792 119.497 38.9801C119.251 38.9342 119.127 38.8233 119.126 38.6475C119.091 38.4953 119.108 38.3722 119.178 38.2782C119.213 38.1726 119.493 38.0836 120.021 38.0113C120.384 37.9279 120.945 37.7735 121.706 37.5479C121.87 37.5004 122.04 37.4529 122.216 37.4054C122.249 37.0537 122.283 36.6786 122.317 36.28C122.328 36.1042 122.339 35.9459 122.35 35.8052C121.566 35.9957 120.699 36.2217 119.751 36.4831C119.306 36.6019 119.013 36.5796 118.872 36.4161C118.696 36.2644 118.666 36.0829 118.782 35.8715L119.845 33.3889C119.938 33.2011 120.114 33.1477 120.372 33.2287C120.63 33.3801 120.719 33.5614 120.637 33.7726C120.428 34.2773 120.213 34.7762 119.993 35.2692C119.923 35.5039 119.97 35.5682 120.134 35.4621C120.813 35.2837 121.568 35.0992 122.399 34.9086C122.432 34.0998 122.436 33.6311 122.412 33.5023C122.4 33.3851 122.358 33.2857 122.288 33.2039C122.322 32.9811 122.497 32.8633 122.814 32.8503C123.13 32.9195 123.295 33.1298 123.308 33.4813C123.298 33.8798 123.282 34.2841 123.26 34.6944C124.045 34.5273 124.858 34.3602 125.701 34.1929C125.889 34.1571 126.029 34.1507 126.123 34.1738C126.358 34.2549 126.482 34.4244 126.494 34.6821C126.448 34.9518 126.297 35.093 126.039 35.1057Z" fill="white"/>
</svg>
