<svg width="773" height="155" viewBox="0 0 773 155" fill="none" xmlns="http://www.w3.org/2000/svg">
<g clip-path="url(#clip0_173_175)">
<path fill-rule="evenodd" clip-rule="evenodd" d="M142.43 71.16H180.89C185.99 71.16 190.12 67.02 190.12 61.92C190.12 56.82 185.99 52.69 180.89 52.68H125.41C132.47 57.59 138.31 63.89 142.43 71.16ZM112.7 45.93C105.53 43.14 97.65 41.6 89.38 41.6C74.96 41.6 61.74 46.28 51.41 54.08L44.87 45.21C46.3 45.04 47.58 45.08 48.9 45.12C52.13 45.22 55.47 45.31 61.19 42.69C70.82 38.26 73.88 31.18 77.76 22.2L78.84 19.71L75.83 20.14C71.09 20.81 68.23 21.23 60.86 23.84C53.76 26.36 48.21 32.01 45.62 39.32C45.45 39.79 44.54 40.8 43.21 40.98C41.33 41.25 39.79 39.73 38.82 38.4C37.85 37.07 35.55 36.84 34.44 37.25L32.51 37.95L33.74 39.6C35.06 41.36 36.89 43.85 38.84 46.52C41.68 50.41 44.85 54.74 47.1 57.66C36.3 67.57 29.62 81.26 29.62 96.39C29.62 99.78 29.96 103.1 30.6 106.32L20.82 106.35V106.37V106.38H11.67C7.57002 106.38 3.96002 103.68 2.08002 101.2C-0.19998 98.19 -0.0699802 94.52 0.0600198 90.79C1.85002 39.79 39.55 15 85.15 4.97001C94.29 2.96001 102.45 0.200007 109.12 7.27945e-06C112.61 -0.0999927 114.84 2.12001 115.79 4.24001C116.71 6.33001 116.85 9.44001 114.47 11.9C109.11 17.47 100.89 22 90.04 25.38C88.1 25.98 86.22 26.7 84.37 27.45H162.18C167.58 27.45 171.9 32.09 171.37 37.59C170.91 42.39 166.61 45.92 161.78 45.92H112.69L112.7 45.93ZM149.12 95.52H174.5C179.6 95.52 183.74 91.39 183.73 86.28C183.73 81.18 179.6 77.05 174.5 77.05H163.19H149.98H145.3C147.67 82.81 149.01 89.03 149.12 95.52Z" fill="#86BC25"/>
<path fill-rule="evenodd" clip-rule="evenodd" d="M19.46 136.72C19.44 136.72 19.4 136.72 19.38 136.73C15.18 137.59 12.02 141.32 12.02 145.77C12.02 150.87 16.16 155.01 21.26 155.01C43.84 155.01 73.51 154.99 96.09 154.99C96.45 154.99 96.81 154.97 97.17 154.92C126.08 153.55 162.58 143.08 179.91 116.91C184.15 110.5 178.97 101.43 168.41 101.44C160.27 101.44 152.21 101.44 144.06 101.44C123.63 101.44 112.85 109.21 92.28 111.25C83.58 112.11 73.12 111.15 59.45 109.43C50.62 107.7 48.16 116.72 53.66 122.13C62 130.32 78.77 132.6 89.67 132.6C102.78 132.6 115.3 129.52 124.66 124.99C126.45 124.13 128.6 124.88 129.46 126.66C130.32 128.45 129.57 130.6 127.79 131.46C117.53 136.42 103.89 139.8 89.68 139.8C82.03 139.8 74.19 138.82 66.59 136.59C50.67 136.64 36.83 136.64 19.5 136.73L19.46 136.72ZM0.170044 121.53C0.170044 116.43 4.30004 112.29 9.40004 112.29H32.18C34.43 119.1 38.08 125.35 42.84 130.76H17.37H9.40004C4.30004 130.76 0.170044 126.62 0.170044 121.53Z" fill="#FABA20"/>
<path fill-rule="evenodd" clip-rule="evenodd" d="M100.47 81.35C103.48 78.34 108.37 78.34 111.38 81.35C114.4 84.37 114.4 89.25 111.38 92.27C108.37 95.28 103.48 95.28 100.47 92.27C97.46 89.25 97.46 84.37 100.47 81.35Z" fill="#FABA20"/>
<path fill-rule="evenodd" clip-rule="evenodd" d="M67.38 81.35C70.39 78.34 75.28 78.34 78.29 81.35C81.31 84.37 81.31 89.25 78.29 92.27C75.28 95.28 70.39 95.28 67.38 92.27C64.36 89.25 64.36 84.37 67.38 81.35Z" fill="#FABA20"/>
<path d="M285.9 150.36V152.85H246.32V150.36H264.3V147.96H250.67V145.74H264.3V143.52C255.47 143.75 254.16 143.84 253.25 144.11C253.16 143.57 252.8 142.34 252.53 141.66C253.21 141.61 254.02 141.43 254.97 141.07C255.69 140.8 257.51 139.98 259.41 138.85H251.62V136.77H280.33V138.85H275.17C277.62 140.26 280.11 142.02 281.6 143.29L279.52 145.06C278.98 144.52 278.16 143.88 277.3 143.2L267.61 143.43V145.74H281.78V147.96H267.61V150.36H285.91H285.9ZM264.3 117.52H246.37V115.17H264.3V112.5H267.61V115.17H285.86V117.52H267.61V119.87H282.51V122.09H249.67V119.87H264.3V117.52ZM281.78 138.9V134.82H250.26V138.9H247.23V132.47H284.96V138.9H281.79H281.78ZM280.6 124V130.57H251.7V124H280.6ZM277.29 125.99H254.83V128.57H277.29V125.99ZM263.39 138.85C261.8 139.89 260.22 140.75 258.63 141.48L274.44 141.26C273.26 140.49 272.04 139.81 270.95 139.22L271.36 138.86H263.39V138.85Z" fill="#6F6F6E"/>
<path d="M305.81 132.11C304.5 130.66 301.64 128.62 299.33 127.35L301.23 125.08C303.59 126.21 306.44 128.16 307.84 129.56L305.8 132.1L305.81 132.11ZM300.19 151.58C301.82 148.09 304.18 142.25 305.85 137.18L308.48 138.95C306.99 143.66 304.99 149.19 303.23 153.31L300.2 151.59L300.19 151.58ZM306.58 120.38C305.36 118.88 302.59 116.76 300.33 115.35L302.28 113.13C304.54 114.4 307.35 116.44 308.62 117.93L306.58 120.38ZM311.61 129.21C311.16 131.43 310.48 133.87 309.62 135.46C309.26 135.14 308.4 134.6 307.94 134.37C308.8 132.74 309.3 130.75 309.66 128.76L311.61 129.21ZM317.68 127.4C317.54 126.99 317.36 126.5 317.14 126C310.98 126.86 309.94 127.09 309.3 127.4C309.21 126.99 308.8 126.09 308.53 125.63C309.21 125.54 309.84 124.95 310.61 124.04C311.11 123.59 312.24 122.27 313.42 120.64C310.48 120.91 309.71 121.09 309.25 121.27C309.11 120.86 308.75 119.96 308.48 119.55C308.98 119.46 309.39 119.05 309.88 118.42C310.29 117.79 311.96 115.2 312.64 112.81L314.77 113.58C314 115.48 312.82 117.38 311.74 118.88L314.73 118.7C315.18 118.02 315.59 117.34 315.95 116.66L317.99 117.52C316.41 120.1 314.46 122.68 312.42 124.77L316.41 124.27C316.14 123.73 315.82 123.27 315.55 122.77L317.27 122.18C318.18 123.59 319.08 125.49 319.44 126.66L317.67 127.38L317.68 127.4ZM338.69 144.84C338.69 144.84 338.65 145.79 338.51 146.2C337.65 150.1 336.74 152.09 335.52 152.99C334.57 153.67 333.62 153.85 332.12 153.85C330.76 153.89 328.04 153.85 325.19 153.67C325.1 152.9 324.74 151.82 324.24 151.09C327.14 151.36 330.08 151.41 331.21 151.41C332.21 151.41 332.66 151.37 333.11 151.05C333.88 150.55 334.47 149.38 335.06 147.16H311.24C311.96 145.25 312.64 142.63 313.19 140.41H333.62V138.06H311.56V135.89H336.74V142.59H315.77C315.59 143.36 315.36 144.13 315.14 144.86H338.69V144.84ZM313.55 134.7C313.51 133.25 313.1 130.89 312.55 129.13L314.32 128.68C314.91 130.45 315.36 132.67 315.41 134.07L313.55 134.71V134.7ZM317.58 127.95C318.3 129.54 318.98 131.57 319.21 132.79L317.49 133.56C317.31 132.25 316.63 130.16 315.9 128.49L317.58 127.95ZM329.63 119.12H318.76V117.04H323.56C323.24 115.95 322.43 114.5 321.79 113.46L324.1 112.87C324.82 113.91 325.64 115.5 326.05 116.45L324.06 117.04H329.63V119.12ZM319.98 127.59H328.5V134.25H319.98V127.59ZM328.45 122.61H320.12V120.71H328.45V122.61ZM320.12 124.06H328.45V125.92H320.12V124.06ZM322.2 132.4H326.19V129.41H322.2V132.4ZM332.57 129.05C332.16 131.27 331.44 133.63 330.62 135.3C330.26 134.98 329.35 134.39 328.85 134.12C329.76 132.53 330.25 130.54 330.62 128.59L332.57 129.04V129.05ZM338.82 127.56C338.68 127.06 338.46 126.52 338.19 125.89C331.99 126.75 330.85 127.02 330.26 127.25C330.12 126.93 329.76 125.98 329.49 125.48C330.17 125.39 330.8 124.84 331.62 123.99C332.12 123.49 333.2 122.18 334.43 120.55C331.44 120.87 330.67 121 330.22 121.23C330.08 120.83 329.72 119.92 329.45 119.46C329.99 119.42 330.31 119.01 330.81 118.33C331.31 117.7 332.89 115.16 333.62 112.76L335.75 113.53C334.98 115.39 333.85 117.29 332.72 118.79L335.71 118.61C336.16 117.93 336.57 117.25 336.93 116.57L339.01 117.48C337.43 120.02 335.43 122.56 333.44 124.68L337.38 124.18C337.11 123.64 336.84 123.18 336.57 122.73L338.2 122.09C339.2 123.59 340.19 125.58 340.56 126.85L338.84 127.57L338.82 127.56ZM334.56 135.08C334.52 133.54 334.06 131 333.43 129.05L335.24 128.6C335.87 130.55 336.33 133 336.37 134.49L334.56 135.08ZM338.5 127.83C339.45 129.69 340.22 132.09 340.45 133.54L338.73 134.36C338.5 132.77 337.73 130.33 336.87 128.43L338.5 127.84V127.83Z" fill="#6F6F6E"/>
<path d="M368.17 142.85V149.96L376.78 148.1C376.73 148.87 376.73 150.05 376.82 150.68C366.27 153.21 364.91 153.53 364.09 154.08C364 153.27 363.41 151.95 363 151.27C363.77 150.95 364.95 150.18 364.95 148.37V142.85H360.74C360.15 146.7 358.93 150.82 356.48 153.99C355.85 153.45 354.44 152.63 353.63 152.27C357.44 147.47 357.98 140.95 357.98 136.33V130.58H393.35V133.12H361.19V135.52H391.22V137.83H361.19C361.14 138.65 361.1 139.42 361.01 140.28H394.34V142.86H389.63L391.85 144.72C389.22 146.03 386.05 147.25 383.33 148.16C386.5 149.66 390.44 150.65 394.92 151.01C394.24 151.69 393.43 152.91 393.02 153.82C383.56 152.64 376.9 149.02 373.55 142.86H368.16L368.17 142.85ZM390.86 128.36H358.43V115.68H367.8V112.51H371.11V115.68H377.68V112.51H380.99V115.68H390.86V128.36ZM361.56 120.89H367.81V117.99H361.56V120.89ZM361.56 126.05H367.81V123.11H361.56V126.05ZM371.12 117.99V120.89H377.69V117.99H371.12ZM371.12 123.11V126.05H377.69V123.11H371.12ZM376.74 142.86C377.78 144.35 379.19 145.67 380.91 146.76C383.58 145.76 387.07 144.09 389.24 142.86H376.74ZM387.61 117.99H381V120.89H387.61V117.99ZM387.61 123.11H381V126.05H387.61V123.11Z" fill="#6F6F6E"/>
<path d="M433.37 137.95C435.73 145.15 439.89 150.09 443.92 150.04C445.23 149.99 445.78 148.18 446 143.43C446.77 144.11 448.04 144.74 448.94 145.02C448.4 151.63 447.04 153.35 443.73 153.35C437.66 153.4 432.45 146.96 429.83 137.95H416.2V149.27L427.07 146.64C427.07 147.54 427.25 149.04 427.43 149.72C415.11 153.03 413.44 153.44 412.35 154.12C412.08 153.21 411.35 151.72 410.76 151.04C411.58 150.64 412.75 149.59 412.75 147.74V114.86H444.77V127.95H431.54C431.68 130.35 432.04 132.61 432.54 134.79H448.12V137.96H433.36L433.37 137.95ZM416.2 118.02V124.77H441.43V118.02H416.2ZM429.02 134.78C428.61 132.61 428.25 130.34 428.12 127.94H416.21V134.78H429.03H429.02Z" fill="#6F6F6E"/>
<path d="M502.93 149.14V152.27H462.12V149.14H468.55V123.05H479.15C479.33 121.96 479.56 120.74 479.74 119.47H463.44V116.39H480.2C480.38 114.99 480.52 113.63 480.61 112.45L484.28 112.81L483.69 116.39H501.58V119.47H483.1C482.87 120.74 482.65 121.96 482.38 123.05H496.78V149.14H502.94H502.93ZM471.77 125.91V129.71H493.42V125.91H471.77ZM493.42 132.34H471.77V135.96H493.42V132.34ZM471.77 142.48H493.42V138.58H471.77V142.48ZM471.77 149.14H493.42V145.11H471.77V149.14Z" fill="#6F6F6E"/>
<path d="M532.54 148.73C526.92 149.95 520.99 151.31 516.64 152.26L515.83 149.23C517.82 148.91 520.4 148.41 523.3 147.87V134.69H516.37V131.74H523.3V126.8H519.09V125.13C518.41 125.76 517.78 126.35 517.14 126.94C516.91 126.22 516.01 124.45 515.42 123.63C518.86 120.92 522.21 116.79 524.16 112.49L527.15 113.49C526.88 114.03 526.61 114.58 526.29 115.17C528.96 117.39 532.04 120.15 533.67 121.78L531.81 124.36C530.22 122.64 527.37 119.97 524.84 117.7C523.48 119.97 521.9 122.05 520.22 123.91H530.5V126.81H526.29V131.75H532.04V134.7H526.29V147.29L532.36 146.16L532.54 148.74V148.73ZM519.18 137.05C519.9 139.72 520.77 143.12 521.13 145.34L518.59 146.02C518.32 143.75 517.5 140.27 516.78 137.64L519.18 137.05ZM527.65 144.75C528.42 142.53 529.46 138.95 529.87 136.51L532.54 137.33C531.68 140.09 530.68 143.4 529.78 145.48L527.65 144.76V144.75ZM555.32 149.64C555.32 151.5 554.91 152.49 553.6 153.04C552.24 153.58 550.07 153.58 546.67 153.58C546.53 152.67 546.08 151.31 545.63 150.41C548.21 150.5 550.52 150.5 551.2 150.45C551.88 150.45 552.1 150.23 552.1 149.59V141.67C547.57 142.85 542.86 144.02 539.19 144.89L538.06 141.99C541.64 141.27 546.89 140.09 552.1 138.86V128.35H538.02V137.81C538.02 142.75 537.61 149.45 534.94 154.02C534.4 153.43 533.08 152.39 532.36 152.03C534.67 147.91 534.9 142.25 534.9 137.77V125.36H543.46V112.54H546.67V125.36H555.32V149.64ZM538.2 123.78C537.52 121.47 535.66 117.89 533.81 115.31L536.48 114C538.43 116.53 540.42 119.98 541.1 122.29L538.2 123.78ZM540.19 131.48C543.72 132.12 548.3 133.57 550.74 134.79L549.38 137.24C547.02 135.97 542.5 134.39 538.87 133.62L540.18 131.49L540.19 131.48ZM556.72 115C555.18 117.99 553.28 121.29 551.65 123.51L548.93 122.33C550.47 120.02 552.51 116.4 553.6 113.77L556.72 114.99V115Z" fill="#6F6F6E"/>
<path d="M587.82 141.98L588.14 145.06C582.16 146.6 575.87 148.19 571.16 149.36L570.35 146.05C572.98 145.46 576.42 144.74 580.13 143.83C581.31 139.03 582.49 131.1 583.07 125.62L586.24 126.21C585.33 131.51 584.11 138.39 582.93 143.15L587.82 141.97V141.98ZM570.88 120.97H588.36V124.09H570.88V120.97ZM575.36 126.18C576.4 131.34 577.4 137.86 577.67 142.3L574.82 142.84C574.64 138.4 573.69 131.79 572.65 126.67L575.37 126.17L575.36 126.18ZM579.16 120.52C578.62 118.66 577.35 115.76 576.17 113.63L578.98 112.77C580.34 114.86 581.65 117.62 582.19 119.48L579.16 120.52ZM599.95 125.09V134.01H609.46V153.66H606.06V151.71H592.47V153.84H589.21V134H596.55V112.49H599.95V121.87H611.36V125.08H599.95V125.09ZM606.06 137.18H592.47V148.55H606.06V137.18Z" fill="#6F6F6E"/>
<path d="M637.49 124.95H624.54V122.24H637.49V124.95ZM641.07 148.32C637.45 150.49 631.74 152.62 627.26 153.84C626.67 153.16 625.54 151.89 624.77 151.3C629.39 150.35 634.82 148.72 638.04 146.95L641.07 148.31V148.32ZM636.36 117.84H625.53V115.21H636.36V117.84ZM630.47 128.49H659.77V146.65H630.47V128.49ZM633.73 133.83H656.42V130.75H633.73V133.83ZM633.73 139.08H656.42V136H633.73V139.08ZM633.73 144.42H656.42V141.25H633.73V144.42ZM644.6 118.2C643.6 119.92 642.43 121.51 641.2 122.73C640.66 122.23 639.39 121.37 638.67 121.01C641.02 118.88 642.88 115.71 643.88 112.41L646.91 113.09C646.64 113.95 646.28 114.77 645.96 115.58H661.13L661.67 115.44L663.93 116.21C662.8 118.52 661.35 121.15 660.13 122.73L657.46 121.78C658.14 120.83 658.96 119.52 659.59 118.2H652.39V118.79C652.39 119.24 652.34 119.74 652.25 120.28C654.65 123 659.59 124.76 665.52 125.26C664.89 125.89 664.03 127.11 663.62 127.93C658.46 127.21 654.11 125.4 651.3 122.63C649.8 124.85 646.23 126.93 638.26 128.16C637.9 127.44 637.04 126.21 636.45 125.67C648.18 124.08 649.27 121.01 649.27 118.65V118.2H644.6ZM651.39 146.91C656.24 148.4 661.53 150.35 664.71 151.8L661.77 153.75C658.87 152.3 653.98 150.35 649.09 148.72L651.4 146.91H651.39Z" fill="#6F6F6E"/>
<path d="M694.87 122.96H678.61V120.2H694.87V122.96ZM693.19 151.13H683.09V153.26H680.37V138.04H693.19V151.13ZM680.42 128.8V126.13H693.15V128.8H680.42ZM680.42 132.02H693.24V134.69H680.42V132.02ZM683.09 140.85V148.32H690.43V140.85H683.09ZM686.58 119.7C685.95 118.07 684.54 115.53 683.41 113.68L685.81 112.32C687.03 114.18 688.44 116.58 689.07 118.16L686.58 119.7ZM715.02 115.08C714.75 133.38 714.66 149.09 717.19 149.73C717.46 149.82 717.78 146.92 717.96 143.66C718.5 144.52 719.41 145.65 719.91 146.11C719.41 152.45 717.96 153.9 715.88 153.04C711.44 151.68 711.58 136.87 711.62 118.3H704.1V131.66H710.08V134.78H704.1V153.85H700.93V134.78H694.82V131.66H700.93V118.3H695.31V115.08H715.01H715.02Z" fill="#6F6F6E"/>
<path d="M737.02 141.89C736.57 145.83 735.71 150 734.8 152.81C734.26 152.49 732.94 152.09 732.31 151.9C733.31 149.09 733.99 145.11 734.44 141.48L737.02 141.89ZM745.99 129.71C747.17 132.56 748.48 136.19 749.02 138.36L746.48 139.36C746.34 138.72 746.12 137.95 745.94 137.19C735.84 138.78 734.48 139.09 733.62 139.54C733.53 138.86 733.03 137.41 732.67 136.6C733.58 136.42 734.57 135.29 735.89 133.57C736.61 132.71 738.02 130.76 739.6 128.27C734.89 128.81 733.94 129.04 733.35 129.36C733.17 128.72 732.72 127.23 732.4 126.46C733.12 126.28 733.9 125.33 734.8 123.97C735.75 122.61 738.83 117.44 740.6 112.56L743.45 113.78C741.55 118.04 739.1 122.48 736.61 125.92L741.36 125.47C742.49 123.52 743.72 121.35 744.67 119.22L747.3 120.81C744.45 126.15 740.96 131.54 737.38 135.84L745.17 134.75C744.67 133.3 744.08 131.85 743.58 130.54L745.98 129.72L745.99 129.71ZM741.46 141.3C742.09 144.29 742.59 148.19 742.73 150.81L740.19 151.44C740.1 148.77 739.6 144.83 739.1 141.75L741.46 141.3ZM746.21 140.12C747.25 142.93 748.43 146.51 748.88 148.82L746.53 149.68C746.08 147.28 744.99 143.65 743.99 140.89L746.21 140.12ZM772.66 150.08C772.66 151.94 772.3 152.75 771.12 153.3C770.03 153.84 768.18 153.89 765.41 153.89C765.32 153.07 764.91 151.72 764.55 150.9C766.45 150.99 768.27 150.95 768.81 150.95C769.4 150.9 769.58 150.72 769.58 150.09V117.66H752.64V153.94H749.61V114.67H772.66V150.09V150.08ZM765.37 142.61C766.09 142.61 767.36 142.57 768.04 142.39C768.13 143.16 768.22 144.2 768.31 144.88C767.72 145.06 766.54 145.1 765.41 145.1H759.61C756.62 145.1 755.94 144.01 755.94 141.02V136.63H754.26V133.96H760.42C760.01 132.74 759.29 131.15 758.65 129.97L760.73 129.15H753.8V126.48H762.41C763.22 124.35 764.13 121.18 764.54 119.01L766.99 119.73C766.31 121.95 765.49 124.53 764.77 126.48H768.62V129.15H761.01C761.78 130.46 762.59 132.23 763 133.23L761.37 133.95H768.07V136.62H758.74V141.06C758.74 142.24 758.88 142.6 759.83 142.6H765.36L765.37 142.61ZM757.44 118.92C758.57 120.91 759.61 123.58 759.89 125.35L757.72 126.12C757.4 124.35 756.45 121.64 755.36 119.65L757.44 118.93V118.92Z" fill="#6F6F6E"/>
<path d="M537.13 3.71L537 7.53H578.04C578.04 12.99 573.62 17.41 568.16 17.41H562.31V36.34H578.83C578.83 42.26 574.03 47.06 568.11 47.06H561.66C561.22 49.67 560.43 52.41 559.3 55.27L582.94 73.54C582.94 80 575.52 83.63 570.41 79.68L553.4 66.28C549.47 71.5 542.12 78.47 536.53 82.01C533.83 83.66 530.98 85.1 527.99 86.34C522.06 88.79 515.56 84.23 515.56 77.81C523.16 75.45 529.46 71.8 534.44 66.85C539.42 61.91 545.11 53.59 546.33 47.06H519.19C519.19 41.14 523.99 36.34 529.91 36.34H546.85V17.41H535.57C535.05 19.84 534.46 22.11 533.8 24.22L533.78 24.28C532.74 27.62 529.65 29.9 526.15 29.9H517.35C518.66 27.48 519.91 23.87 521.09 19.08C521.33 18.12 521.54 17.15 521.73 16.17C523.1 9.01 529.14 3.7 536.44 3.7H537.16L537.13 3.71ZM632.58 6.79V65.86C632.58 77.22 623.37 86.43 612.01 86.43H584.72V27.35C584.72 15.99 593.93 6.78 605.29 6.78H632.58V6.79ZM599.67 75.98H603.18C611.16 75.98 617.64 69.51 617.64 61.52V17.23H614.13C606.15 17.23 599.67 23.7 599.67 31.69V75.98Z" fill="#6F6F6E"/>
<path d="M694.46 5.2V68C694.46 77.45 686.8 85.11 677.35 85.11H655.52V22.32C655.52 12.87 663.18 5.21 672.63 5.21H694.46V5.2ZM670.6 75.23C675.52 75.23 679.52 71.24 679.52 66.31V15.37C674.6 15.37 670.6 19.36 670.6 24.29V75.23ZM742.45 3.71V13.97H766.84C766.84 19.89 762.04 24.69 756.12 24.69H742.45V40.17H770.11C770.11 46.14 765.27 50.99 759.29 50.99H749.26C751.53 56.52 756.99 63.88 760.53 67.94C764.07 72.01 768.11 75.14 772.66 77.31C772.66 83.54 765.5 87 760.59 83.18C759.42 82.27 758.27 81.29 757.13 80.25C752.19 75.75 745.6 68.02 742.45 62.18V77.28C742.45 82.95 737.85 87.54 732.19 87.54H727.25V61.71C724.1 67.68 717.49 75.51 712.51 80.11C711.31 81.22 710.1 82.25 708.87 83.21C703.95 87.05 696.78 83.6 696.78 77.36V77.31C701.5 75.07 705.63 71.93 709.17 67.89C712.71 63.85 717.99 56.51 719.91 50.98H699.2C699.2 45.01 704.04 40.16 710.02 40.16H727.26V24.68H702.61C702.61 18.76 707.41 13.96 713.33 13.96H727.26C727.26 8.3 731.85 3.7 737.52 3.7H742.47L742.45 3.71Z" fill="#6F6F6E"/>
<path d="M312.47 19.11H304.84C301.11 19.11 298.08 22.13 298.08 25.87H305.71C309.44 25.87 312.47 22.85 312.47 19.11Z" fill="#6F6F6E"/>
<path d="M358.81 64.29H346.85C341 64.29 336.26 69.03 336.26 74.88H348.22C354.07 74.88 358.81 70.14 358.81 64.29Z" fill="#6F6F6E"/>
<path d="M277.98 77.2C274.46 77.26 269.82 77.34 264.05 77.43C261.95 77.46 259.83 77.49 257.69 77.51C251.39 77.57 246.31 82.15 246.31 87.8C263.61 87.8 276.56 87.55 285.17 87.05C287.72 86.9 290.11 86.71 292.33 86.49C299.72 85.74 305.26 80.11 305.26 73.45C302.72 74.58 298.86 75.45 293.68 76.08C289.48 76.65 282.3 77.21 277.99 77.21L277.98 77.2Z" fill="#6F6F6E"/>
<path d="M345.8 76.64C342.18 76.32 336.02 75.51 332.4 74.29C324.07 72.04 317.33 68.63 312.16 64.06H336.21C346.16 64.06 354.22 56 354.22 46.05V27.65L354.63 27.69C359.84 28.17 364.35 24.07 364.35 18.83C352.34 17.96 341.92 16.14 333.07 13.39C324.22 10.64 317.82 7.32 313.88 3.44H296.79C292.93 7.26 286.52 10.56 277.54 13.34C268.56 16.12 258.15 17.96 246.32 18.83C246.32 24.07 250.82 28.17 256.04 27.69L256.45 27.65V77.76C258.84 79.31 269.99 78.28 271.96 77.38V64.06H296.14C297.72 66.06 299.47 67.91 301.4 69.6C303.33 71.29 305.43 72.92 307.71 74.48C308.72 75.09 309.49 75.56 310.21 75.99C316.69 79.86 324.45 82.8 333.47 84.81C339.63 86.18 346.39 87.08 353.74 87.51C359.48 87.85 364.36 83.33 364.36 77.58C361.29 77.58 358.05 77.49 354.63 77.3C351.21 77.11 348.28 76.89 345.82 76.64H345.8ZM267.47 25.87C275.44 24.31 282.65 22.23 289.09 19.63C295.53 17.04 300.94 14.11 305.32 10.86C314.17 17.68 326.79 22.68 343.17 25.87H267.47ZM338.57 33.75C338.57 37.74 335.34 40.97 331.35 40.97H271.94C271.94 36.98 275.17 33.75 279.16 33.75H338.57ZM271.94 56.27C271.94 52.18 275.26 48.86 279.35 48.86H338.57C338.57 52.95 335.25 56.27 331.16 56.27H271.94Z" fill="#6F6F6E"/>
<path d="M409 49.71C405.06 49.71 401.87 52.9 401.87 56.84H488.84C492.78 56.84 495.97 53.65 495.97 49.71H409Z" fill="#6F6F6E"/>
<path d="M495.98 19.49V7.2H463.38V3.45H452.41C450.34 3.45 448.66 5.13 448.66 7.2H431.84V3.45H420.87C418.8 3.45 417.12 5.13 417.12 7.2H398.85C390.87 7.2 384.39 13.67 384.39 21.66V33.95H481.52C489.5 33.95 495.98 27.48 495.98 19.49ZM412.99 27.75H399.24C399.24 25.47 401.09 23.62 403.37 23.62H417.12C417.12 25.9 415.27 27.75 412.99 27.75ZM412.99 17.43H399.24C399.24 15.15 401.09 13.3 403.37 13.3H417.12C417.12 15.58 415.27 17.43 412.99 17.43ZM444.53 27.75H431.84C431.84 25.47 433.69 23.62 435.97 23.62H448.66C448.66 25.9 446.81 27.75 444.53 27.75ZM444.53 17.43H431.84C431.84 15.15 433.69 13.3 435.97 13.3H448.66C448.66 15.58 446.81 17.43 444.53 17.43ZM477.13 27.75H463.38C463.38 25.47 465.23 23.62 467.51 23.62H481.26C481.26 25.9 479.41 27.75 477.13 27.75ZM477.13 17.43H463.38C463.38 15.15 465.23 13.3 467.51 13.3H481.26C481.26 15.58 479.41 17.43 477.13 17.43Z" fill="#6F6F6E"/>
<path d="M473.43 73.54H485.39C491.24 73.54 495.98 68.8 495.98 62.95H484.02C478.17 62.95 473.43 67.69 473.43 73.54Z" fill="#6F6F6E"/>
<path d="M399.16 46.62H491.1C495.61 46.62 499.27 42.96 499.27 38.45H386.9V60.24C386.9 74.34 379.92 87.77 379.92 87.77H387.49C393.94 87.77 399.17 81.72 399.17 74.25V46.62H399.16Z" fill="#6F6F6E"/>
<path d="M492.82 79.36C492 79.27 491.22 79.19 490.46 79.1C487.98 78.82 485.52 78.38 483.08 77.83L474.94 75.98C468.19 74.04 462.94 71.19 459.17 67.44H468.6C472.38 67.44 475.45 64.37 475.45 60.59H408.72C404.94 60.59 401.87 63.66 401.87 67.44H413.3V79.45L407.1 79.49C402.53 79.52 398.84 83.23 398.84 87.8C413.21 87.8 424.32 87.55 432.16 87.05C436.47 86.77 440.27 86.4 443.56 85.91C447.63 85.31 450.62 81.8 450.62 77.69V75.98C447.73 76.86 444.49 77.59 440.89 78.19C437.3 78.78 433.22 79.08 428.67 79.08V67.44H444.7C449.78 73.95 456.9 78.98 466.06 82.55C472.02 84.87 476.27 86.38 482.09 87.15C488.66 88.02 495.21 85.29 499.25 80.04L492.81 79.36H492.82Z" fill="#6F6F6E"/>
</g>
<defs>
<clipPath id="clip0_173_175">
<rect width="772.66" height="155" fill="white"/>
</clipPath>
</defs>
</svg>
